<svg width="31" height="31" viewBox="0 0 31 31" fill="none" xmlns="http://www.w3.org/2000/svg">
<path d="M26.0408 8.83442C22.3208 3.09942 14.7258 1.39442 8.83576 4.95942C3.10076 8.52442 1.24076 16.2744 4.96076 22.0094L5.27076 22.4744L4.03076 27.1244L8.68076 25.8844L9.14576 26.1944C11.1608 27.2794 13.3308 27.8994 15.5008 27.8994C17.8258 27.8994 20.1508 27.2794 22.1658 26.0394C27.9008 22.3194 29.6058 14.7244 26.0408 8.83442ZM22.7858 20.7694C22.1658 21.6994 21.3908 22.3194 20.3058 22.4744C19.6858 22.4744 18.9108 22.7844 15.8108 21.5444C13.1758 20.3044 11.0058 18.2894 9.45576 15.9644C8.52576 14.8794 8.06076 13.4844 7.90576 12.0894C7.90576 10.8494 8.37076 9.76442 9.14576 8.98942C9.45576 8.67942 9.76576 8.52442 10.0758 8.52442H10.8508C11.1608 8.52442 11.4708 8.52442 11.6258 9.14442C11.9358 9.91942 12.7108 11.7794 12.7108 11.9344C12.8658 12.0894 12.8658 12.3994 12.7108 12.5544C12.8658 12.8644 12.7108 13.1744 12.5558 13.3294C12.4008 13.4844 12.2458 13.7944 12.0908 13.9494C11.7808 14.1044 11.6258 14.4144 11.7808 14.7244C12.4008 15.6544 13.1758 16.5844 13.9508 17.3594C14.8808 18.1344 15.8108 18.7544 16.8958 19.2194C17.2058 19.3744 17.5158 19.3744 17.6708 19.0644C17.8258 18.7544 18.6008 17.9794 18.9108 17.6694C19.2208 17.3594 19.3758 17.3594 19.6858 17.5144L22.1658 18.7544C22.4758 18.9094 22.7858 19.0644 22.9408 19.2194C23.0958 19.6844 23.0958 20.3044 22.7858 20.7694Z" fill="#DC6041"/>
</svg>
