<svg width="62" height="62" viewBox="0 0 62 62" fill="none" xmlns="http://www.w3.org/2000/svg">
<path d="M53.0545 9.92665C50.2248 7.09075 46.8627 4.84184 43.1613 3.30912C39.4599 1.77639 35.4921 0.990038 31.4859 0.995234C14.6398 0.995234 0.983398 14.6516 0.983398 31.4978C0.983398 39.9209 4.3994 47.5484 9.9199 53.0689C12.7496 55.9048 16.1117 58.1537 19.8131 59.6864C23.5145 61.2192 27.4823 62.0055 31.4885 62.0003C48.3347 62.0003 61.991 48.3439 61.991 31.4978C61.991 23.0747 58.575 15.4472 53.0545 9.92665ZM49.1353 49.1369C46.8204 51.4578 44.0697 53.2983 41.0413 54.5528C38.0129 55.8072 34.7664 56.4509 31.4885 56.4468C17.705 56.4468 6.53186 45.2736 6.53186 31.4902C6.52775 28.2122 7.17142 24.9658 8.42588 21.9373C9.68034 18.9089 11.5209 16.1582 13.8417 13.8434C16.156 11.5225 18.9062 9.68192 21.9343 8.42745C24.9623 7.17298 28.2084 6.52934 31.4859 6.53353C45.2669 6.53353 56.44 17.7067 56.44 31.4876C56.4444 34.7652 55.8008 38.0113 54.5463 41.0394C53.2918 44.0674 51.4512 46.8176 49.1302 49.1319L49.1353 49.1369Z" fill="#F24E1E"/>
<path d="M35.4065 31.5L45.2046 21.7019C45.6879 21.1751 45.9491 20.482 45.9336 19.7672C45.9181 19.0524 45.6271 18.3713 45.1214 17.8659C44.6157 17.3605 43.9344 17.07 43.2196 17.0549C42.5048 17.0399 41.8118 17.3015 41.2853 17.7852L41.2879 17.7827L31.4897 27.5808L21.6916 17.7827C21.1648 17.2993 20.4717 17.0382 19.7569 17.0537C19.0421 17.0692 18.361 17.3601 17.8556 17.8658C17.3502 18.3715 17.0597 19.0529 17.0447 19.7677C17.0296 20.4824 17.2912 21.1754 17.7749 21.7019L17.7724 21.6994L27.5705 31.4975L17.7724 41.2956C17.4967 41.5485 17.275 41.8546 17.1208 42.1954C16.9665 42.5363 16.8828 42.9048 16.8747 43.2788C16.8666 43.6528 16.9342 44.0246 17.0736 44.3718C17.2129 44.719 17.4211 45.0344 17.6856 45.2991C17.95 45.5637 18.2653 45.7721 18.6124 45.9117C18.9595 46.0512 19.3313 46.1191 19.7053 46.1113C20.0793 46.1034 20.4479 46.0199 20.7888 45.8659C21.1298 45.7118 21.436 45.4904 21.6891 45.2149L21.6916 45.2123L31.4897 35.4142L41.2879 45.2123C41.5408 45.488 41.8469 45.7096 42.1877 45.8639C42.5285 46.0182 42.897 46.1019 43.2711 46.11C43.6451 46.1181 44.0169 46.0505 44.3641 45.9111C44.7113 45.7718 45.0267 45.5636 45.2913 45.2991C45.556 45.0347 45.7643 44.7194 45.9039 44.3723C46.0435 44.0252 46.1114 43.6534 46.1035 43.2794C46.0957 42.9054 46.0122 42.5368 45.8581 42.1959C45.7041 41.8549 45.4826 41.5487 45.2071 41.2956L45.2046 41.2931L35.4065 31.5Z" fill="#F24E1E"/>
</svg>
