<svg width="40" height="31" viewBox="0 0 40 31" fill="none" xmlns="http://www.w3.org/2000/svg">
<path d="M0 15.1192H29.4116M29.4116 15.1192L23.9999 9.76953M29.4116 15.1192L23.9999 20.4689" stroke="white"/>
<ellipse cx="24.4707" cy="15.3512" rx="15.5293" ry="15.3512" fill="#C4C4C4" fill-opacity="0.01"/>
<path d="M13.4898 26.2062C15.6616 28.3531 18.4287 29.8152 21.4411 30.4075C24.4534 30.9998 27.5759 30.6958 30.4135 29.5339C33.2511 28.372 35.6765 26.4044 37.3828 23.8799C39.0892 21.3554 40 18.3874 40 15.3512C40 12.315 39.0892 9.34704 37.3828 6.82254C35.6765 4.29805 33.2511 2.33044 30.4135 1.16854C27.5759 0.0066449 24.4535 -0.297361 21.4411 0.294969C18.4287 0.887299 15.6616 2.34936 13.4898 4.49627L13.8457 4.8481C15.9471 2.77078 18.6245 1.35611 21.5393 0.782975C24.454 0.209843 27.4752 0.503996 30.2209 1.62823C32.9665 2.75247 35.3133 4.6563 36.9643 7.09898C38.6154 9.54165 39.4967 12.4135 39.4967 15.3512C39.4967 18.289 38.6154 21.1608 36.9643 23.6035C35.3132 26.0461 32.9665 27.95 30.2209 29.0742C27.4752 30.1985 24.454 30.4926 21.5393 29.9195C18.6245 29.3463 15.9471 27.9317 13.8457 25.8543L13.4898 26.2062Z" fill="white"/>
</svg>
