<svg width="88" height="35" viewBox="0 0 88 35" fill="none" xmlns="http://www.w3.org/2000/svg">
<rect x="87.5" y="0.5" width="34" height="87" rx="17" transform="rotate(90 87.5 0.5)" stroke="white"/>
<path d="M53.8839 10.536C53.799 10.3744 53.6716 10.2391 53.5155 10.1447C53.3593 10.0502 53.1804 10.0002 52.9979 10L34.9979 10C34.8157 10.0008 34.6372 10.0511 34.4815 10.1458C34.3259 10.2404 34.199 10.3756 34.1144 10.537C34.0299 10.6983 33.9909 10.8797 34.0018 11.0615C34.0126 11.2434 34.0728 11.4188 34.1759 11.569L43.1759 24.569C43.2676 24.7022 43.3904 24.8112 43.5336 24.8864C43.6767 24.9617 43.8361 25.001 43.9979 25.001C44.1596 25.001 44.319 24.9617 44.4622 24.8864C44.6054 24.8112 44.7281 24.7022 44.8199 24.569L53.8199 11.569C53.9239 11.4191 53.985 11.2436 53.9962 11.0614C54.0075 10.8793 53.9687 10.6976 53.8839 10.536ZM43.9979 22.243L36.9059 12L51.0899 12L43.9979 22.243Z" fill="white"/>
</svg>
