<svg width="67" height="63" viewBox="0 0 67 63" fill="none" xmlns="http://www.w3.org/2000/svg">
<rect x="11.2397" y="12.5996" width="40.95" height="36.225" fill="#C97100"/>
<path d="M29.2382 28.0808C28.9625 27.2462 28.7145 26.4385 28.4388 25.6038C28.1632 24.7692 27.9152 23.9885 27.6947 23.2077C27.4742 22.4538 27.2812 21.7538 27.0883 21.1077H27.0332C26.7851 22.2654 26.4819 23.4231 26.096 24.5808C25.6826 25.8731 25.2692 27.2192 24.8282 28.5654C24.4423 29.9385 24.0288 31.2038 23.6154 32.3346H30.6163C30.4509 31.7665 30.2304 31.0962 29.9823 30.3935C29.7343 29.6692 29.4862 28.8885 29.2382 28.0808ZM54.6508 0H11.9289C5.45172 0 0.214844 5.11539 0.214844 11.4423V51.5577C0.214844 57.8846 5.45172 63 11.9289 63H54.6508C61.128 63 66.3648 57.8846 66.3648 51.5577V11.4423C66.3648 5.11539 61.128 0 54.6508 0ZM40.7317 44.5038H34.9684C34.7782 44.5308 34.5853 44.3962 34.5302 44.2077L32.27 37.8H22.0168L19.922 44.1269C19.8669 44.3692 19.6464 44.5308 19.3983 44.5065H14.2166C13.9134 44.5065 13.8307 44.3423 13.9134 44.0219L22.7885 19.0615C22.8712 18.7923 22.9539 18.4962 23.0642 18.1731C23.1744 17.6077 23.2295 17.0154 23.2295 16.4231C23.202 16.2885 23.3122 16.1538 23.45 16.1269H30.5887C30.8092 16.1269 30.9195 16.2077 30.947 16.3423L41.0073 44.0731C41.09 44.3665 41.0073 44.5038 40.7317 44.5038ZM50.103 44.1C50.103 44.3962 49.9955 44.5308 49.7474 44.5308H44.3424C44.0668 44.5308 43.929 44.3665 43.929 44.1V23.3692C43.929 23.1 44.042 22.9923 44.29 22.9923H49.7474C49.9955 22.9923 50.103 23.1269 50.103 23.3692V44.1ZM49.5269 19.7885C49.2014 20.1114 48.8089 20.3625 48.3758 20.5251C47.9428 20.6876 47.4791 20.7577 47.016 20.7308C46.1064 20.7577 45.2244 20.4077 44.5602 19.7885C43.9287 19.114 43.5923 18.225 43.623 17.3115C43.5955 16.3962 43.9538 15.5346 44.6125 14.9154C45.2795 14.2962 46.1615 13.9731 47.0711 13.9731C48.1488 13.9731 48.9701 14.2962 49.5793 14.9154C50.1857 15.5615 50.5164 16.4231 50.4888 17.3115C50.5164 18.2269 50.1857 19.1154 49.5269 19.7885Z" fill="#330000"/>
</svg>
