<svg width="85" height="66" viewBox="0 0 85 66" fill="none" xmlns="http://www.w3.org/2000/svg">
<path d="M85 33.5L22.5 33.5M22.5 33.5L34 45M22.5 33.5L34 22" stroke="#F2F2F2"/>
<circle cx="33" cy="33" r="33" transform="rotate(-180 33 33)" fill="#C4C4C4" fill-opacity="0.01"/>
<path d="M56.3345 9.66548C51.7194 5.05035 45.8394 1.9074 39.438 0.63409C33.0366 -0.639226 26.4014 0.0142845 20.3715 2.51198C14.3415 5.00967 9.1876 9.23936 5.56151 14.6662C1.93542 20.093 3.85752e-06 26.4732 2.88495e-06 33C1.91239e-06 39.5268 1.93542 45.907 5.5615 51.3338C9.18759 56.7606 14.3415 60.9903 20.3714 63.488C26.4014 65.9857 33.0366 66.6392 39.438 65.3659C45.8393 64.0926 51.7194 60.9497 56.3345 56.3345L55.5782 55.5782C51.1127 60.0438 45.4232 63.0848 39.2293 64.3169C33.0354 65.5489 26.6153 64.9166 20.7808 62.4998C14.9462 60.0831 9.9594 55.9905 6.45084 50.7396C2.94229 45.4886 1.0696 39.3152 1.0696 33C1.0696 26.6848 2.94229 20.5113 6.45085 15.2604C9.95941 10.0095 14.9463 5.91689 20.7808 3.50016C26.6153 1.08342 33.0354 0.451098 39.2293 1.68314C45.4232 2.91518 51.1127 5.95626 55.5782 10.4218L56.3345 9.66548Z" fill="#F2F2F2"/>
</svg>
