<svg width="32" height="32" viewBox="0 0 32 32" fill="none" xmlns="http://www.w3.org/2000/svg">
<path d="M16 0C7.16143 0 0 7.16143 0 16C0 24.8386 7.16143 32 16 32C24.8386 32 32 24.8386 32 16C32 7.16143 24.8386 0 16 0ZM9.92857 22.9921C9.83039 23.1596 9.68985 23.2983 9.52108 23.3942C9.35231 23.4901 9.16126 23.5399 8.96714 23.5386C8.7693 23.5403 8.57489 23.4869 8.40571 23.3843C8.27975 23.3113 8.16944 23.2141 8.08112 23.0984C7.9928 22.9827 7.9282 22.8506 7.89104 22.7099C7.85387 22.5691 7.84487 22.4224 7.86455 22.2781C7.88423 22.1339 7.9322 21.995 8.00571 21.8693L9.09786 20.0536C9.15305 19.9599 9.23179 19.8822 9.32627 19.8283C9.42074 19.7744 9.52767 19.7462 9.63643 19.7464H9.79786C10.59 19.7464 11.1443 20.2229 11.3057 20.6843L9.92857 22.9921ZM19.175 19.4207L12.0229 19.4286H7.26929C7.11973 19.4292 6.9716 19.3995 6.83388 19.3411C6.69617 19.2828 6.57174 19.1971 6.46814 19.0892C6.36455 18.9813 6.28394 18.8535 6.23122 18.7136C6.1785 18.5736 6.15475 18.4244 6.16143 18.275C6.18429 17.675 6.70786 17.2207 7.30429 17.2207H10.75L14.835 10.2671L13.5121 8.01357C13.2143 7.5 13.3464 6.82286 13.8571 6.5C13.9831 6.41857 14.1241 6.36344 14.2719 6.33793C14.4196 6.31242 14.571 6.31705 14.717 6.35155C14.8629 6.38604 15.0003 6.44969 15.121 6.53866C15.2417 6.62764 15.3432 6.7401 15.4193 6.86929L16.1264 8.07714H16.1343L16.8421 6.86929C16.9183 6.74077 17.0196 6.62891 17.14 6.54039C17.2604 6.45186 17.3973 6.38847 17.5427 6.35401C17.6881 6.31955 17.8389 6.31472 17.9862 6.3398C18.1335 6.36488 18.2742 6.41936 18.4 6.5C18.9079 6.82286 19.0386 7.5 18.7386 8.01571L17.4157 10.2693L16.13 12.4614L13.3379 17.2229V17.2307H17.4529C17.9686 17.2307 18.615 17.5079 18.8764 17.9536L18.8993 18C19.13 18.3921 19.2607 18.6614 19.2607 19.0536C19.2569 19.1809 19.2286 19.3063 19.1771 19.4229L19.175 19.4207ZM24.7286 19.4286H22.7921V19.4364L24.2079 21.8443C24.3601 22.0979 24.4067 22.4011 24.3377 22.6887C24.2686 22.9763 24.0894 23.2253 23.8386 23.3821C23.6647 23.4881 23.465 23.5442 23.2614 23.5443C23.0678 23.5442 22.8776 23.494 22.7091 23.3987C22.5406 23.3033 22.3997 23.166 22.3 23L20.2079 19.4386L18.9079 17.2243L17.2307 14.3571C16.9878 13.9478 16.8558 13.4821 16.8476 13.0062C16.8395 12.5302 16.9555 12.0603 17.1843 11.6429C17.5157 11.0579 17.7693 10.9043 17.7693 10.9043L21.5 17.2143H24.7079C25.3079 17.2143 25.8229 17.6757 25.8507 18.2679C25.8565 18.4184 25.8318 18.5686 25.7781 18.7093C25.7243 18.8501 25.6427 18.9785 25.5381 19.0869C25.4335 19.1953 25.308 19.2815 25.1693 19.3402C25.0306 19.3989 24.8814 19.429 24.7307 19.4286H24.7286Z" fill="#DC6041"/>
</svg>
