<svg width="31" height="31" viewBox="0 0 31 31" fill="none" xmlns="http://www.w3.org/2000/svg">
<path d="M19.139 15.4978L30.2366 4.42442C30.7226 3.93837 30.9956 3.27915 30.9956 2.59177C30.9956 1.90439 30.7226 1.24516 30.2366 0.759111C29.7506 0.273061 29.0915 0 28.4042 0C27.7169 0 27.0578 0.273061 26.5718 0.759111L15.5 11.8583L4.4282 0.759111C3.94222 0.273061 3.28309 -5.12137e-09 2.5958 0C1.90852 5.12138e-09 1.24939 0.273061 0.763408 0.759111C0.277426 1.24516 0.00440447 1.90439 0.00440446 2.59177C0.00440446 3.27915 0.277426 3.93837 0.763408 4.42442L11.861 15.4978L0.763408 26.5712C0.52151 26.8111 0.329511 27.0966 0.198485 27.4112C0.0674592 27.7257 0 28.0631 0 28.4038C0 28.7446 0.0674592 29.082 0.198485 29.3965C0.329511 29.711 0.52151 29.9965 0.763408 30.2365C1.00333 30.4784 1.28877 30.6704 1.60327 30.8015C1.91777 30.9325 2.2551 31 2.5958 31C2.93651 31 3.27384 30.9325 3.58833 30.8015C3.90283 30.6704 4.18828 30.4784 4.4282 30.2365L15.5 19.1373L26.5718 30.2365C26.8117 30.4784 27.0972 30.6704 27.4117 30.8015C27.7262 30.9325 28.0635 31 28.4042 31C28.7449 31 29.0822 30.9325 29.3967 30.8015C29.7112 30.6704 29.9967 30.4784 30.2366 30.2365C30.4785 29.9965 30.6705 29.711 30.8015 29.3965C30.9325 29.082 31 28.7446 31 28.4038C31 28.0631 30.9325 27.7257 30.8015 27.4112C30.6705 27.0966 30.4785 26.8111 30.2366 26.5712L19.139 15.4978Z" fill="#FBFBFB" fill-opacity="0.33"/>
</svg>
