<svg width="25" height="48" viewBox="0 0 25 48" fill="none" xmlns="http://www.w3.org/2000/svg">
<path d="M24.4435 47.4351C24.8003 47.0659 25 46.5701 25 46.0539C25 45.5377 24.8003 45.042 24.4435 44.6727L4.51142 24L24.4435 3.33141C24.8003 2.96213 25 2.4664 25 1.9502C25 1.43399 24.8003 0.938263 24.4435 0.568981C24.2701 0.388912 24.0628 0.245792 23.8337 0.148067C23.6047 0.0503424 23.3586 -3.95819e-06 23.1101 -3.97992e-06C22.8615 -4.00165e-06 22.6154 0.0503424 22.3864 0.148067C22.1574 0.245792 21.95 0.388912 21.7766 0.568981L0.58063 22.5568C0.208355 22.9429 4.05264e-06 23.4608 4.0055e-06 24C3.95836e-06 24.5392 0.208355 25.0571 0.580629 25.4432L21.7766 47.431C21.95 47.6111 22.1574 47.7542 22.3864 47.8519C22.6154 47.9497 22.8615 48 23.1101 48C23.3586 48 23.6047 47.9497 23.8337 47.8519C24.0628 47.7542 24.2701 47.6111 24.4435 47.431L24.4435 47.4351Z" fill="white"/>
</svg>
