<svg width="49" height="49" viewBox="0 0 49 49" fill="none" xmlns="http://www.w3.org/2000/svg">
<path d="M24.5 2.9216e-07C30.9978 3.69645e-07 37.2295 2.58124 41.8241 7.17588C46.4188 11.7705 49 18.0022 49 24.5C49 30.9978 46.4188 37.2295 41.8241 41.8241C37.2295 46.4188 30.9978 49 24.5 49C18.0022 49 11.7705 46.4188 7.17588 41.8241C2.58124 37.2295 2.14674e-07 30.9978 2.9216e-07 24.5C3.69645e-07 18.0022 2.58124 11.7705 7.17588 7.17588C11.7705 2.58124 18.0022 2.14674e-07 24.5 2.9216e-07ZM13.7813 22.9688C13.3751 22.9688 12.9857 23.1301 12.6985 23.4172C12.4113 23.7044 12.25 24.0939 12.25 24.5C12.25 24.9061 12.4113 25.2956 12.6985 25.5828C12.9857 25.8699 13.3751 26.0313 13.7813 26.0313L31.5223 26.0313L24.9471 32.6034C24.6596 32.8909 24.4981 33.2809 24.4981 33.6875C24.4981 34.0941 24.6596 34.4841 24.9471 34.7716C25.2347 35.0592 25.6246 35.2207 26.0313 35.2207C26.4379 35.2207 26.8278 35.0592 27.1154 34.7716L36.3029 25.5841C36.4455 25.4419 36.5586 25.2729 36.6358 25.0869C36.713 24.9008 36.7527 24.7014 36.7527 24.5C36.7527 24.2986 36.713 24.0992 36.6358 23.9131C36.5586 23.7271 36.4455 23.5581 36.3029 23.4159L27.1154 14.2284C26.8278 13.9408 26.4379 13.7793 26.0313 13.7793C25.6246 13.7793 25.2347 13.9408 24.9471 14.2284C24.6596 14.5159 24.4981 14.9059 24.4981 15.3125C24.4981 15.7191 24.6596 16.1091 24.9471 16.3966L31.5223 22.9688L13.7813 22.9688Z" fill="#FAFAFA"/>
</svg>
