<svg width="43" height="43" viewBox="0 0 43 43" fill="none" xmlns="http://www.w3.org/2000/svg">
<rect width="43" height="43" rx="4" fill="#232B34"/>
<path d="M36.3199 14.2299C36.0061 15.2326 35.5471 16.184 34.9574 17.0536L34.9812 17.0161C34.4212 17.9495 33.7524 19.0278 32.9749 20.2511C32.3082 21.217 31.9553 21.717 31.9162 21.7511C31.738 21.9742 31.6227 22.241 31.5824 22.5236L31.5812 22.5324C31.613 22.7871 31.7312 23.0231 31.9162 23.2011L32.4162 23.7586C35.0912 26.5078 36.5957 28.4028 36.9299 29.4436C36.9933 29.6146 37.0137 29.7985 36.9892 29.9792C36.9648 30.1599 36.8964 30.3319 36.7899 30.4799L36.7924 30.4761C36.6666 30.6059 36.5132 30.7058 36.3435 30.7683C36.1739 30.8309 35.9924 30.8545 35.8124 30.8374H35.8174H32.5224C32.1012 30.8374 31.7137 30.6899 31.4099 30.4449L31.4137 30.4474C30.98 30.0918 30.5819 29.6949 30.2249 29.2624L30.2137 29.2474C29.6378 28.5966 29.127 28.0486 28.6812 27.6036C27.1962 26.192 26.1003 25.4861 25.3937 25.4861C25.1656 25.4657 24.9375 25.5254 24.7487 25.6549L24.7524 25.6524C24.6713 25.7541 24.6117 25.8713 24.5773 25.9968C24.5429 26.1223 24.5345 26.2535 24.5524 26.3824V26.3774C24.5038 26.9606 24.488 27.5461 24.5049 28.1311V28.1099V29.5586C24.5404 29.7317 24.5282 29.9111 24.4697 30.0778C24.4111 30.2445 24.3084 30.3921 24.1724 30.5049L24.1712 30.5061C23.5382 30.7921 22.8413 30.9072 22.1499 30.8399L22.1662 30.8411C20.2739 30.8087 18.4263 30.2607 16.8224 29.2561L16.8662 29.2811C15.0167 28.1661 13.4314 26.6627 12.2199 24.8749L12.1862 24.8224C11.0102 23.2542 9.97653 21.5843 9.09741 19.8324L9.00991 19.6399C8.42411 18.5054 7.90937 17.3357 7.46866 16.1374L7.39366 15.9061C7.18933 15.2841 7.05926 14.64 7.00616 13.9874L7.00366 13.9561C7.00366 13.3245 7.37533 13.0086 8.11866 13.0086H11.4062C11.7385 12.9826 12.0685 13.0831 12.3299 13.2899L12.3274 13.2874C12.5774 13.5611 12.7624 13.8974 12.8537 14.2724L12.8574 14.2874C13.4005 15.8428 14.0638 17.3536 14.8412 18.8061L14.7574 18.6349C15.3193 19.7762 15.9992 20.8554 16.7862 21.8549L16.7574 21.8161C17.4241 22.6345 17.9441 23.0436 18.3174 23.0436L18.3574 23.0449C18.4453 23.045 18.5317 23.022 18.6078 22.9781C18.684 22.9342 18.7472 22.871 18.7912 22.7949L18.7924 22.7924C18.9121 22.4791 18.9595 22.1428 18.9312 21.8086V21.8161V16.9674C18.9078 16.4176 18.7716 15.8786 18.5312 15.3836L18.5412 15.4074C18.3953 15.0928 18.206 14.8004 17.9787 14.5386L17.9824 14.5436C17.7728 14.3344 17.6364 14.063 17.5937 13.7699L17.5924 13.7624C17.5924 13.5499 17.6899 13.3586 17.8424 13.2336L17.8437 13.2324C18.0006 13.0887 18.2059 13.0092 18.4187 13.0099H23.6112C23.7415 12.9947 23.8736 13.0121 23.9955 13.0605C24.1175 13.1089 24.2255 13.1869 24.3099 13.2874L24.3112 13.2886C24.469 13.5804 24.5381 13.9119 24.5099 14.2424V14.2361V20.7024C24.49 20.9574 24.5494 21.2124 24.6799 21.4324L24.6774 21.4274C24.7232 21.4958 24.7851 21.5519 24.8577 21.5907C24.9303 21.6295 25.0113 21.6498 25.0937 21.6499H25.0949C25.3057 21.6362 25.509 21.5663 25.6837 21.4474L25.6799 21.4499C26.0199 21.2161 26.3124 20.9499 26.5662 20.6486L26.5712 20.6424C27.3434 19.7686 28.0358 18.8273 28.6399 17.8299L28.6887 17.7424C29.1187 17.0299 29.5837 16.1524 30.0049 15.2511L30.0824 15.0674L30.6399 13.9524C30.7381 13.6641 30.9274 13.4156 31.1793 13.2444C31.4312 13.0733 31.732 12.9887 32.0362 13.0036H32.0324H35.3212C36.2095 13.0036 36.5428 13.4124 36.3212 14.2299H36.3199Z" fill="#DC6041"/>
</svg>
