<svg width="43" height="43" viewBox="0 0 43 43" fill="none" xmlns="http://www.w3.org/2000/svg">
<rect width="43" height="43" rx="4" fill="#232B34"/>
<path d="M32.0403 14.8354C28.3203 9.1004 20.7253 7.3954 14.8353 10.9604C9.10027 14.5254 7.24027 22.2754 10.9603 28.0104L11.2703 28.4754L10.0303 33.1254L14.6803 31.8854L15.1453 32.1954C17.1603 33.2804 19.3303 33.9004 21.5003 33.9004C23.8253 33.9004 26.1503 33.2804 28.1653 32.0404C33.9003 28.3204 35.6053 20.7254 32.0403 14.8354ZM28.7853 26.7704C28.1653 27.7004 27.3903 28.3204 26.3053 28.4754C25.6853 28.4754 24.9103 28.7854 21.8103 27.5454C19.1753 26.3054 17.0053 24.2904 15.4553 21.9654C14.5253 20.8804 14.0603 19.4854 13.9053 18.0904C13.9053 16.8504 14.3703 15.7654 15.1453 14.9904C15.4553 14.6804 15.7653 14.5254 16.0753 14.5254H16.8503C17.1603 14.5254 17.4703 14.5254 17.6253 15.1454C17.9353 15.9204 18.7103 17.7804 18.7103 17.9354C18.8653 18.0904 18.8653 18.4004 18.7103 18.5554C18.8653 18.8654 18.7103 19.1754 18.5553 19.3304C18.4003 19.4854 18.2453 19.7954 18.0903 19.9504C17.7803 20.1054 17.6253 20.4154 17.7803 20.7254C18.4003 21.6554 19.1753 22.5854 19.9503 23.3604C20.8803 24.1354 21.8103 24.7554 22.8953 25.2204C23.2053 25.3754 23.5153 25.3754 23.6703 25.0654C23.8253 24.7554 24.6003 23.9804 24.9103 23.6704C25.2203 23.3604 25.3753 23.3604 25.6853 23.5154L28.1653 24.7554C28.4753 24.9104 28.7853 25.0654 28.9403 25.2204C29.0953 25.6854 29.0953 26.3054 28.7853 26.7704Z" fill="#DC6041"/>
</svg>
