<svg width="50" height="50" viewBox="0 0 50 50" fill="none" xmlns="http://www.w3.org/2000/svg">
<path fill-rule="evenodd" clip-rule="evenodd" d="M46.1215 24.8557C46.1215 19.0877 43.8539 13.5559 39.8174 9.47733C35.781 5.39873 30.3064 3.10739 24.5981 3.10739C18.8897 3.10739 13.4151 5.39872 9.37869 9.47733C5.34226 13.5559 3.07461 19.0877 3.07461 24.8557C3.07461 30.6237 5.34226 36.1555 9.37869 40.2341C13.4151 44.3127 18.8897 46.604 24.5981 46.604C30.3064 46.604 35.781 44.3127 39.8174 40.2341C43.8539 36.1555 46.1215 30.6237 46.1215 24.8557ZM-0.000165674 24.8557C-0.000165097 18.2637 2.59143 11.9417 7.20449 7.28041C11.8176 2.61915 18.0742 0.00048556 24.5981 0.000486131C31.1219 0.000486701 37.3786 2.61915 41.9916 7.28041C46.6047 11.9417 49.1963 18.2637 49.1963 24.8557C49.1963 31.4477 46.6047 37.7698 41.9916 42.431C37.3786 47.0923 31.1219 49.7109 24.5981 49.7109C18.0742 49.7109 11.8175 47.0923 7.20449 42.431C2.59142 37.7697 -0.00016625 31.4477 -0.000165674 24.8557ZM23.0607 35.7299C23.0607 36.1419 23.2226 36.537 23.511 36.8283C23.7993 37.1197 24.1903 37.2833 24.5981 37.2833C25.0058 37.2833 25.3968 37.1197 25.6852 36.8283C25.9735 36.537 26.1355 36.1419 26.1355 35.7299L26.1355 17.7316L32.7339 24.4021C33.0226 24.6938 33.4141 24.8577 33.8224 24.8577C34.2307 24.8577 34.6222 24.6938 34.9109 24.4021C35.1996 24.1104 35.3617 23.7148 35.3617 23.3023C35.3617 22.8897 35.1996 22.4941 34.9109 22.2024L25.6865 12.8817C25.5437 12.737 25.3741 12.6223 25.1873 12.5439C25.0005 12.4656 24.8003 12.4253 24.5981 12.4253C24.3958 12.4253 24.1956 12.4656 24.0088 12.5439C23.8221 12.6223 23.6524 12.737 23.5096 12.8817L14.2853 22.2024C13.9966 22.4941 13.8344 22.8897 13.8344 23.3023C13.8344 23.7148 13.9966 24.1104 14.2853 24.4021C14.5739 24.6938 14.9655 24.8577 15.3737 24.8577C15.782 24.8577 16.1735 24.6938 16.4622 24.4021L23.0607 17.7316L23.0607 35.7299Z" fill="#DC6041"/>
</svg>
