<svg width="444" height="603" viewBox="0 0 444 603" fill="none" xmlns="http://www.w3.org/2000/svg">
<g filter="url(#filter0_bd_3_316)">
<path d="M114.52 35.32C112.013 35.32 110 34.5333 108.48 32.96C106.987 31.3867 106.24 29.2267 106.24 26.48V10.64C106.24 7.22667 106.92 4.65333 108.28 2.92C109.64 1.18666 111.773 0.319998 114.68 0.319998C117.213 0.319998 119.253 1.01333 120.8 2.4C122.347 3.78667 123.12 5.78667 123.12 8.4V14.32H116.28V9.24C116.28 8.25333 116.16 7.57333 115.92 7.2C115.68 6.82666 115.267 6.64 114.68 6.64C114.067 6.64 113.64 6.85333 113.4 7.28C113.187 7.70667 113.08 8.33333 113.08 9.16V26.4C113.08 27.3067 113.213 27.9733 113.48 28.4C113.747 28.8 114.147 29 114.68 29C115.747 29 116.28 28.1333 116.28 26.4V20.2H123.2V26.68C123.2 32.44 120.307 35.32 114.52 35.32ZM126.945 35V0.639999H133.585V35H126.945ZM141.088 35V7.24H137.008V0.639999H152.048V7.24H147.968V35H141.088ZM162.867 35.32C160.387 35.32 158.534 34.4533 157.307 32.72C156.107 30.96 155.507 28.3067 155.507 24.76V9.96C155.507 6.78666 156.214 4.38666 157.627 2.76C159.041 1.13333 161.147 0.319998 163.947 0.319998C166.214 0.319998 167.974 0.773331 169.227 1.68C170.481 2.58667 171.347 3.90667 171.827 5.64C172.307 7.37333 172.547 9.6 172.547 12.32H165.827V9.24C165.827 8.41333 165.707 7.77333 165.467 7.32C165.254 6.86666 164.854 6.64 164.267 6.64C162.961 6.64 162.307 7.49333 162.307 9.2V25.84C162.307 26.88 162.441 27.6667 162.707 28.2C162.974 28.7333 163.441 29 164.107 29C164.774 29 165.241 28.7333 165.507 28.2C165.774 27.6667 165.907 26.88 165.907 25.84V20.92H164.067V15H172.467V35H169.707L168.547 32.12C167.321 34.2533 165.427 35.32 162.867 35.32Z" fill="url(#paint0_linear_3_316)"/>
</g>
<defs>
<filter id="filter0_bd_3_316" x="-164.329" y="-38.6799" width="607.446" height="640.792" filterUnits="userSpaceOnUse" color-interpolation-filters="sRGB">
<feFlood flood-opacity="0" result="BackgroundImageFix"/>
<feGaussianBlur in="BackgroundImage" stdDeviation="19.5"/>
<feComposite in2="SourceAlpha" operator="in" result="effect1_backgroundBlur_3_316"/>
<feColorMatrix in="SourceAlpha" type="matrix" values="0 0 0 0 0 0 0 0 0 0 0 0 0 0 0 0 0 0 127 0" result="hardAlpha"/>
<feOffset dy="296.222"/>
<feGaussianBlur stdDeviation="135.285"/>
<feColorMatrix type="matrix" values="0 0 0 0 0 0 0 0 0 0 0 0 0 0 0 0 0 0 0.0527836 0"/>
<feBlend mode="normal" in2="effect1_backgroundBlur_3_316" result="effect2_dropShadow_3_316"/>
<feBlend mode="normal" in="SourceGraphic" in2="effect2_dropShadow_3_316" result="shape"/>
</filter>
<linearGradient id="paint0_linear_3_316" x1="138.22" y1="-11.887" x2="166.161" y2="14.0371" gradientUnits="userSpaceOnUse">
<stop stop-color="#DD8A4B"/>
<stop offset="1" stop-color="#D05937"/>
</linearGradient>
</defs>
</svg>
