<svg width="279" height="367" viewBox="0 0 279 367" fill="none" xmlns="http://www.w3.org/2000/svg">
<g filter="url(#filter0_i_3_468)">
<circle cx="139.275" cy="129.545" r="86.4263" fill="#2D3238"/>
</g>
<g filter="url(#filter1_d_3_468)">
<path d="M229.127 224.648L139.201 338.708L49.2761 224.648C33.1865 207.897 22.2213 188.226 16.3806 165.635C10.5398 143.043 10.5398 120.452 16.3806 97.86C22.2213 75.2684 33.2416 55.5422 49.4414 38.6811C65.6412 21.8201 84.6511 10.4142 106.471 4.46321C128.291 -1.48774 150.112 -1.48774 171.932 4.46321C193.752 10.4142 212.762 21.8201 228.962 38.6811C245.161 55.5422 256.182 75.2684 262.022 97.86C267.863 120.452 267.863 143.043 262.022 165.635C256.182 188.226 245.216 207.897 229.127 224.648ZM139.367 42.8137C115.894 42.8137 95.8918 51.079 79.3614 67.6094C62.831 84.1398 54.5658 104.086 54.5658 127.449C54.5658 150.812 62.831 170.704 79.3614 187.124C95.8918 203.544 115.894 211.754 139.367 211.754C162.84 211.754 182.842 203.544 199.372 187.124C215.903 170.704 224.168 150.812 224.168 127.449C224.168 104.086 215.903 84.1398 199.372 67.6094C182.842 51.079 162.84 42.8137 139.367 42.8137Z" fill="url(#paint0_angular_3_468)"/>
</g>
<g filter="url(#filter2_d_3_468)">
<path fill-rule="evenodd" clip-rule="evenodd" d="M217.846 95.074C210.58 77.19 197.258 62.3204 180.124 53.0099C162.579 43.4763 142.174 40.3894 122.539 44.2983C102.904 48.2072 85.3109 58.8584 72.8886 74.3577C60.7109 89.5519 54.2763 108.44 54.6649 127.78H54.3179C54.3179 140.245 57.1201 152.554 62.522 163.818C67.9239 175.082 75.7905 185.019 85.5531 192.91C95.3158 200.802 106.73 206.451 118.972 209.449C131.214 212.448 143.977 212.72 156.338 210.247C168.699 207.775 180.35 202.618 190.449 195.151C200.547 187.683 208.841 178.092 214.73 167.069C220.619 156.046 223.957 143.868 224.502 131.415C225.046 118.961 222.785 106.544 217.88 95.0598L217.846 95.074ZM68.6865 128.48L68.9699 128.47C68.4076 112.056 73.766 95.9772 84.0922 83.0933C94.4183 70.2093 109.043 61.3554 125.365 58.1061C141.687 54.8568 158.648 57.4227 173.232 65.3476C187.555 73.1302 198.673 85.5855 204.69 100.563L204.646 100.581C208.723 110.127 210.603 120.449 210.15 130.801C209.697 141.153 206.923 151.277 202.027 160.439C197.132 169.602 190.238 177.575 181.843 183.783C173.449 189.99 163.764 194.276 153.488 196.332C143.213 198.387 132.604 198.161 122.428 195.669C112.251 193.176 102.763 188.48 94.6476 181.92C86.5323 175.36 79.9931 167.1 75.5027 157.737C71.1134 148.585 68.7889 138.602 68.6865 128.48Z" fill="url(#paint1_angular_3_468)"/>
</g>
<path fill-rule="evenodd" clip-rule="evenodd" d="M103.579 124.215C103.579 108.199 116.562 95.2153 132.579 95.2153H145.99C162.006 95.2153 174.99 108.199 174.99 124.215V137.627C174.99 153.643 162.006 166.627 145.99 166.627H132.579C116.562 166.627 103.579 153.643 103.579 137.627V124.215ZM111.844 130.921C111.844 126.656 112.817 122.619 114.553 119.019H119.448V121.664H125.069V116.044H119.779V113.399H118.166C123.2 107.339 130.792 103.48 139.285 103.48C149.01 103.48 157.553 108.539 162.427 116.169V121.995H165.241C166.203 124.793 166.725 127.796 166.725 130.921C166.725 131.926 166.671 132.919 166.566 133.896H159.451V142.823H164.017C163.454 143.989 162.812 145.11 162.097 146.177V145.137H156.476V150.757L154.492 150.757V153.765C151.812 155.553 148.799 156.882 145.566 157.639V155.386H141.268V158.291C140.613 158.338 139.952 158.361 139.285 158.361C136.34 158.361 133.504 157.898 130.845 157.039H134.656V157.039H138.954V155.386H141.268V151.088H136.97V152.741H136.309V148.113H127.383V155.653C127.161 155.546 126.94 155.436 126.722 155.323V151.088H122.093V152.309C121.118 151.525 120.197 150.674 119.339 149.766H123.746V145.137H119.118V149.529C114.603 144.638 111.844 138.102 111.844 130.921ZM127.052 129.689C127.052 123.613 131.977 118.689 138.052 118.689H140.186C146.262 118.689 151.186 123.613 151.186 129.689V131.823C151.186 137.898 146.262 142.823 140.186 142.823H138.052C131.977 142.823 127.052 137.898 127.052 131.823V129.689ZM130.028 131.086C130.028 126.065 134.098 121.994 139.119 121.994C144.141 121.994 148.211 126.065 148.211 131.086C148.211 136.107 144.141 140.178 139.119 140.178C134.098 140.178 130.028 136.107 130.028 131.086ZM126.391 108.77H132.011V114.391H126.391V108.77ZM144.905 144.145H140.607V148.443H144.905V144.145ZM114.159 135.55H117.134V138.525H114.159V135.55ZM118.456 122.986H115.481V125.962H118.456V122.986ZM118.125 127.945H121.101V130.921H118.125V127.945ZM158.46 129.268H155.484V132.243H158.46V129.268ZM152.839 122.986H155.815V125.962H152.839V122.986ZM163.749 126.623H160.774V129.598H163.749V126.623ZM140.607 111.084H143.582V114.06H140.607V111.084ZM137.631 106.125H134.656V109.101H137.631V106.125ZM152.178 111.084H158.129V117.035H152.178V111.084Z" fill="white"/>
<rect x="133.664" y="125.3" width="10.9101" height="10.9101" fill="white"/>
<mask id="mask0_3_468" style="mask-type:alpha" maskUnits="userSpaceOnUse" x="12" y="0" width="255" height="339">
<path d="M229.127 224.648L139.201 338.708L49.2761 224.648C33.1865 207.897 22.2213 188.226 16.3806 165.635C10.5398 143.043 10.5398 120.452 16.3806 97.86C22.2213 75.2684 33.2416 55.5422 49.4414 38.6811C65.6412 21.8201 84.6511 10.4142 106.471 4.46321C128.291 -1.48774 150.112 -1.48774 171.932 4.46321C193.752 10.4142 212.762 21.8201 228.962 38.6811C245.161 55.5422 256.182 75.2684 262.022 97.86C267.863 120.452 267.863 143.043 262.022 165.635C256.182 188.226 245.216 207.897 229.127 224.648ZM139.367 42.8137C115.894 42.8137 95.8918 51.079 79.3614 67.6094C62.831 84.1398 54.5658 104.086 54.5658 127.449C54.5658 150.812 62.831 170.704 79.3614 187.124C95.8918 203.544 115.894 211.754 139.367 211.754C162.84 211.754 182.842 203.544 199.372 187.124C215.903 170.704 224.168 150.812 224.168 127.449C224.168 104.086 215.903 84.1398 199.372 67.6094C182.842 51.079 162.84 42.8137 139.367 42.8137Z" fill="url(#paint2_angular_3_468)"/>
</mask>
<g mask="url(#mask0_3_468)">
<rect x="31.0713" y="208.566" width="260.189" height="38.958" transform="rotate(-45 31.0713 208.566)" fill="url(#paint3_linear_3_468)"/>
<rect x="24.1035" y="196.463" width="260.189" height="8.82705" transform="rotate(-45 24.1035 196.463)" fill="url(#paint4_linear_3_468)"/>
</g>
<defs>
<filter id="filter0_i_3_468" x="52.8491" y="43.1183" width="172.853" height="172.853" filterUnits="userSpaceOnUse" color-interpolation-filters="sRGB">
<feFlood flood-opacity="0" result="BackgroundImageFix"/>
<feBlend mode="normal" in="SourceGraphic" in2="BackgroundImageFix" result="shape"/>
<feColorMatrix in="SourceAlpha" type="matrix" values="0 0 0 0 0 0 0 0 0 0 0 0 0 0 0 0 0 0 127 0" result="hardAlpha"/>
<feMorphology radius="67" operator="erode" in="SourceAlpha" result="effect1_innerShadow_3_468"/>
<feOffset/>
<feGaussianBlur stdDeviation="2"/>
<feComposite in2="hardAlpha" operator="arithmetic" k2="-1" k3="1"/>
<feColorMatrix type="matrix" values="0 0 0 0 0 0 0 0 0 0 0 0 0 0 0 0 0 0 0.25 0"/>
<feBlend mode="normal" in2="shape" result="effect1_innerShadow_3_468"/>
</filter>
<filter id="filter1_d_3_468" x="0" y="0" width="278.403" height="366.708" filterUnits="userSpaceOnUse" color-interpolation-filters="sRGB">
<feFlood flood-opacity="0" result="BackgroundImageFix"/>
<feColorMatrix in="SourceAlpha" type="matrix" values="0 0 0 0 0 0 0 0 0 0 0 0 0 0 0 0 0 0 127 0" result="hardAlpha"/>
<feOffset dy="16"/>
<feGaussianBlur stdDeviation="6"/>
<feComposite in2="hardAlpha" operator="out"/>
<feColorMatrix type="matrix" values="0 0 0 0 0 0 0 0 0 0 0 0 0 0 0 0 0 0 0.25 0"/>
<feBlend mode="normal" in2="BackgroundImageFix" result="effect1_dropShadow_3_468"/>
<feBlend mode="normal" in="SourceGraphic" in2="effect1_dropShadow_3_468" result="shape"/>
</filter>
<filter id="filter2_d_3_468" x="54.3179" y="42.6481" width="170.263" height="169.272" filterUnits="userSpaceOnUse" color-interpolation-filters="sRGB">
<feFlood flood-opacity="0" result="BackgroundImageFix"/>
<feColorMatrix in="SourceAlpha" type="matrix" values="0 0 0 0 0 0 0 0 0 0 0 0 0 0 0 0 0 0 127 0" result="hardAlpha"/>
<feOffset/>
<feComposite in2="hardAlpha" operator="out"/>
<feColorMatrix type="matrix" values="0 0 0 0 0 0 0 0 0 0 0 0 0 0 0 0 0 0 0.25 0"/>
<feBlend mode="normal" in2="BackgroundImageFix" result="effect1_dropShadow_3_468"/>
<feBlend mode="normal" in="SourceGraphic" in2="effect1_dropShadow_3_468" result="shape"/>
</filter>
<radialGradient id="paint0_angular_3_468" cx="0" cy="0" r="1" gradientUnits="userSpaceOnUse" gradientTransform="translate(139.201 169.354) rotate(89.9855) scale(325.897 244.781)">
<stop stop-color="#F54C4C"/>
<stop offset="0.270833" stop-color="#6636FA"/>
<stop offset="0.59375" stop-color="#FEDA27"/>
<stop offset="0.807292" stop-color="#D56166"/>
<stop offset="1" stop-color="#F54C4C"/>
</radialGradient>
<radialGradient id="paint1_angular_3_468" cx="0" cy="0" r="1" gradientUnits="userSpaceOnUse" gradientTransform="translate(139.284 126.127) rotate(-90.0196) scale(160.642 162.869)">
<stop stop-color="#F54C4C"/>
<stop offset="0.270833" stop-color="#6636FA"/>
<stop offset="0.59375" stop-color="#FEDA27"/>
<stop offset="0.807292" stop-color="#D56166"/>
<stop offset="1" stop-color="#F54C4C"/>
</radialGradient>
<radialGradient id="paint2_angular_3_468" cx="0" cy="0" r="1" gradientUnits="userSpaceOnUse" gradientTransform="translate(139.201 169.354) rotate(89.9855) scale(325.897 244.781)">
<stop stop-color="#F54C4C"/>
<stop offset="0.270833" stop-color="#6636FA"/>
<stop offset="0.59375" stop-color="#FEDA27"/>
<stop offset="0.807292" stop-color="#D56166"/>
<stop offset="1" stop-color="#F54C4C"/>
</radialGradient>
<linearGradient id="paint3_linear_3_468" x1="549.697" y1="230.004" x2="9.1632" y2="306.669" gradientUnits="userSpaceOnUse">
<stop stop-color="white"/>
<stop offset="0.579793" stop-color="white" stop-opacity="0"/>
</linearGradient>
<linearGradient id="paint4_linear_3_468" x1="542.729" y1="201.32" x2="146.559" y2="449.312" gradientUnits="userSpaceOnUse">
<stop stop-color="white"/>
<stop offset="0.651533" stop-color="white" stop-opacity="0"/>
</linearGradient>
</defs>
</svg>
