<svg width="277" height="340" viewBox="0 0 277 340" fill="none" xmlns="http://www.w3.org/2000/svg">
<g filter="url(#filter0_d_3_451)">
<mask id="mask0_3_451" style="mask-type:alpha" maskUnits="userSpaceOnUse" x="17" y="4" width="243" height="306">
<path fill-rule="evenodd" clip-rule="evenodd" d="M138.5 4C204.368 4 260 31.9723 260 65.0749V95.6123C260 128.715 204.368 156.687 138.5 156.687C72.6318 156.687 17 128.715 17 95.6123V65.0749C17 31.9723 72.6318 4 138.5 4ZM17 202.493C17 235.596 72.6318 263.568 138.5 263.568C204.368 263.568 260 235.596 260 202.493V248.299C260 281.402 204.368 309.374 138.5 309.374C72.6318 309.374 17 281.402 17 248.299V202.493ZM138.5 187.04C204.368 187.04 260 159.152 260 126.151V171.817C260 204.819 204.368 232.707 138.5 232.707C72.6318 232.707 17 204.819 17 171.817V126.151C17 159.152 72.6318 187.04 138.5 187.04Z" fill="black"/>
</mask>
<g mask="url(#mask0_3_451)">
<g filter="url(#filter1_d_3_451)">
<g filter="url(#filter2_b_3_451)">
<path d="M-106.758 21.0736C-102.922 39.1884 80.2504 113.985 180.859 113.985C281.467 113.985 334.378 159.139 334.378 138.833C367.078 127.803 171.516 44.1264 92.1099 0.00521708C-8.49863 0.00521708 -115.588 -20.626 -106.758 21.0736Z" fill="url(#paint0_linear_3_451)"/>
</g>
<g filter="url(#filter3_b_3_451)">
<path d="M-106.758 150.916C-110.594 169.03 80.2508 252.886 180.859 252.886C281.468 252.886 342.052 288.982 342.052 268.675C374.752 257.645 171.517 183.027 92.1103 138.906C-8.49823 138.906 -99.4583 116.443 -106.758 150.916Z" fill="url(#paint1_linear_3_451)"/>
</g>
<g filter="url(#filter4_bi_3_451)">
<ellipse cx="121.775" cy="272.604" rx="228.878" ry="51.4747" fill="url(#paint2_linear_3_451)"/>
</g>
<g filter="url(#filter5_b_3_451)">
<ellipse cx="126.449" cy="265.253" rx="177.497" ry="36.7677" fill="url(#paint3_linear_3_451)"/>
</g>
<g filter="url(#filter6_b_3_451)">
<path d="M346.698 139.98C361.078 166.063 276.225 215.195 160.35 254.987C44.4763 294.779 -91.8587 302.445 -106.24 276.362C-120.62 250.279 -7.60141 200.325 108.273 160.533C224.147 120.741 332.317 113.897 346.698 139.98Z" fill="url(#paint4_linear_3_451)"/>
</g>
<g filter="url(#filter7_b_3_451)">
<path d="M313.284 169.658C313.284 189.964 142.975 246.87 42.367 246.87C-58.2415 246.87 -60.3931 270.853 -60.3931 250.547C-93.0927 239.516 51.7095 177.011 131.116 132.89C231.724 132.89 313.284 149.352 313.284 169.658Z" fill="url(#paint5_linear_3_451)"/>
</g>
<g filter="url(#filter8_bi_3_451)">
<ellipse cx="121.775" cy="147.597" rx="228.878" ry="51.4747" fill="url(#paint6_linear_3_451)"/>
</g>
<g filter="url(#filter9_b_3_451)">
<ellipse cx="135.789" cy="140.245" rx="177.497" ry="36.7677" fill="url(#paint7_linear_3_451)"/>
</g>
<g filter="url(#filter10_b_3_451)">
<path d="M350.465 14.9095C364.846 40.9923 279.992 90.1249 164.118 129.917C48.2441 169.709 -92.7589 177.376 -107.14 151.293C-121.521 125.21 -3.8336 75.2546 112.041 35.4627C227.915 -4.32914 336.085 -11.1732 350.465 14.9095Z" fill="url(#paint8_linear_3_451)"/>
</g>
<g filter="url(#filter11_b_3_451)">
<path d="M349.718 18.0531C349.718 38.3593 166.546 113.917 65.9372 113.917C-34.6713 113.917 -36.8229 137.9 -36.8229 117.594C-69.5225 106.563 75.2798 44.0583 154.686 -0.0628708C255.295 -0.0628708 349.718 -2.25315 349.718 18.0531Z" fill="url(#paint9_linear_3_451)"/>
</g>
<g filter="url(#filter12_bi_3_451)">
<ellipse cx="121.775" cy="15.2322" rx="228.878" ry="51.4747" fill="url(#paint10_linear_3_451)"/>
</g>
</g>
</g>
</g>
<defs>
<filter id="filter0_d_3_451" x="0" y="0" width="277" height="339.374" filterUnits="userSpaceOnUse" color-interpolation-filters="sRGB">
<feFlood flood-opacity="0" result="BackgroundImageFix"/>
<feColorMatrix in="SourceAlpha" type="matrix" values="0 0 0 0 0 0 0 0 0 0 0 0 0 0 0 0 0 0 127 0" result="hardAlpha"/>
<feOffset dy="13"/>
<feGaussianBlur stdDeviation="8.5"/>
<feComposite in2="hardAlpha" operator="out"/>
<feColorMatrix type="matrix" values="0 0 0 0 0 0 0 0 0 0 0 0 0 0 0 0 0 0 0.25 0"/>
<feBlend mode="normal" in2="BackgroundImageFix" result="effect1_dropShadow_3_451"/>
<feBlend mode="normal" in="SourceGraphic" in2="effect1_dropShadow_3_451" result="shape"/>
</filter>
<filter id="filter1_d_3_451" x="-114.337" y="-42.2426" width="480.392" height="380.321" filterUnits="userSpaceOnUse" color-interpolation-filters="sRGB">
<feFlood flood-opacity="0" result="BackgroundImageFix"/>
<feColorMatrix in="SourceAlpha" type="matrix" values="0 0 0 0 0 0 0 0 0 0 0 0 0 0 0 0 0 0 127 0" result="hardAlpha"/>
<feOffset dx="4" dy="4"/>
<feGaussianBlur stdDeviation="5"/>
<feComposite in2="hardAlpha" operator="out"/>
<feColorMatrix type="matrix" values="0 0 0 0 0 0 0 0 0 0 0 0 0 0 0 0 0 0 0.25 0"/>
<feBlend mode="normal" in2="BackgroundImageFix" result="effect1_dropShadow_3_451"/>
<feBlend mode="normal" in="SourceGraphic" in2="effect1_dropShadow_3_451" result="shape"/>
</filter>
<filter id="filter2_b_3_451" x="-120.27" y="-18.0984" width="471.299" height="175.181" filterUnits="userSpaceOnUse" color-interpolation-filters="sRGB">
<feFlood flood-opacity="0" result="BackgroundImageFix"/>
<feGaussianBlur in="BackgroundImage" stdDeviation="6.5"/>
<feComposite in2="SourceAlpha" operator="in" result="effect1_backgroundBlur_3_451"/>
<feBlend mode="normal" in="SourceGraphic" in2="effect1_backgroundBlur_3_451" result="shape"/>
</filter>
<filter id="filter3_b_3_451" x="-119.815" y="118.714" width="478.397" height="169.159" filterUnits="userSpaceOnUse" color-interpolation-filters="sRGB">
<feFlood flood-opacity="0" result="BackgroundImageFix"/>
<feGaussianBlur in="BackgroundImage" stdDeviation="6.5"/>
<feComposite in2="SourceAlpha" operator="in" result="effect1_backgroundBlur_3_451"/>
<feBlend mode="normal" in="SourceGraphic" in2="effect1_backgroundBlur_3_451" result="shape"/>
</filter>
<filter id="filter4_bi_3_451" x="-120.103" y="208.129" width="483.755" height="128.949" filterUnits="userSpaceOnUse" color-interpolation-filters="sRGB">
<feFlood flood-opacity="0" result="BackgroundImageFix"/>
<feGaussianBlur in="BackgroundImage" stdDeviation="6.5"/>
<feComposite in2="SourceAlpha" operator="in" result="effect1_backgroundBlur_3_451"/>
<feBlend mode="normal" in="SourceGraphic" in2="effect1_backgroundBlur_3_451" result="shape"/>
<feColorMatrix in="SourceAlpha" type="matrix" values="0 0 0 0 0 0 0 0 0 0 0 0 0 0 0 0 0 0 127 0" result="hardAlpha"/>
<feOffset dy="4"/>
<feGaussianBlur stdDeviation="2"/>
<feComposite in2="hardAlpha" operator="arithmetic" k2="-1" k3="1"/>
<feColorMatrix type="matrix" values="0 0 0 0 0.320938 0 0 0 0 0.709638 0 0 0 0 0.975 0 0 0 1 0"/>
<feBlend mode="normal" in2="shape" result="effect2_innerShadow_3_451"/>
</filter>
<filter id="filter5_b_3_451" x="-64.0479" y="215.486" width="380.994" height="99.5353" filterUnits="userSpaceOnUse" color-interpolation-filters="sRGB">
<feFlood flood-opacity="0" result="BackgroundImageFix"/>
<feGaussianBlur in="BackgroundImage" stdDeviation="6.5"/>
<feComposite in2="SourceAlpha" operator="in" result="effect1_backgroundBlur_3_451"/>
<feBlend mode="normal" in="SourceGraphic" in2="effect1_backgroundBlur_3_451" result="shape"/>
</filter>
<filter id="filter6_b_3_451" x="-120.48" y="111.485" width="481.768" height="193.091" filterUnits="userSpaceOnUse" color-interpolation-filters="sRGB">
<feFlood flood-opacity="0" result="BackgroundImageFix"/>
<feGaussianBlur in="BackgroundImage" stdDeviation="6.5"/>
<feComposite in2="SourceAlpha" operator="in" result="effect1_backgroundBlur_3_451"/>
<feBlend mode="normal" in="SourceGraphic" in2="effect1_backgroundBlur_3_451" result="shape"/>
</filter>
<filter id="filter7_b_3_451" x="-78.1216" y="119.89" width="404.405" height="151.818" filterUnits="userSpaceOnUse" color-interpolation-filters="sRGB">
<feFlood flood-opacity="0" result="BackgroundImageFix"/>
<feGaussianBlur in="BackgroundImage" stdDeviation="6.5"/>
<feComposite in2="SourceAlpha" operator="in" result="effect1_backgroundBlur_3_451"/>
<feBlend mode="normal" in="SourceGraphic" in2="effect1_backgroundBlur_3_451" result="shape"/>
</filter>
<filter id="filter8_bi_3_451" x="-120.103" y="83.1227" width="483.755" height="128.949" filterUnits="userSpaceOnUse" color-interpolation-filters="sRGB">
<feFlood flood-opacity="0" result="BackgroundImageFix"/>
<feGaussianBlur in="BackgroundImage" stdDeviation="6.5"/>
<feComposite in2="SourceAlpha" operator="in" result="effect1_backgroundBlur_3_451"/>
<feBlend mode="normal" in="SourceGraphic" in2="effect1_backgroundBlur_3_451" result="shape"/>
<feColorMatrix in="SourceAlpha" type="matrix" values="0 0 0 0 0 0 0 0 0 0 0 0 0 0 0 0 0 0 127 0" result="hardAlpha"/>
<feOffset dy="4"/>
<feGaussianBlur stdDeviation="2"/>
<feComposite in2="hardAlpha" operator="arithmetic" k2="-1" k3="1"/>
<feColorMatrix type="matrix" values="0 0 0 0 0.9125 0 0 0 0 0.460052 0 0 0 0 0.66114 0 0 0 1 0"/>
<feBlend mode="normal" in2="shape" result="effect2_innerShadow_3_451"/>
</filter>
<filter id="filter9_b_3_451" x="-54.708" y="90.4771" width="380.994" height="99.5353" filterUnits="userSpaceOnUse" color-interpolation-filters="sRGB">
<feFlood flood-opacity="0" result="BackgroundImageFix"/>
<feGaussianBlur in="BackgroundImage" stdDeviation="6.5"/>
<feComposite in2="SourceAlpha" operator="in" result="effect1_backgroundBlur_3_451"/>
<feBlend mode="normal" in="SourceGraphic" in2="effect1_backgroundBlur_3_451" result="shape"/>
</filter>
<filter id="filter10_b_3_451" x="-121.337" y="-13.5851" width="486.392" height="193.091" filterUnits="userSpaceOnUse" color-interpolation-filters="sRGB">
<feFlood flood-opacity="0" result="BackgroundImageFix"/>
<feGaussianBlur in="BackgroundImage" stdDeviation="6.5"/>
<feComposite in2="SourceAlpha" operator="in" result="effect1_backgroundBlur_3_451"/>
<feBlend mode="normal" in="SourceGraphic" in2="effect1_backgroundBlur_3_451" result="shape"/>
</filter>
<filter id="filter11_b_3_451" x="-54.5513" y="-13.1318" width="417.27" height="151.887" filterUnits="userSpaceOnUse" color-interpolation-filters="sRGB">
<feFlood flood-opacity="0" result="BackgroundImageFix"/>
<feGaussianBlur in="BackgroundImage" stdDeviation="6.5"/>
<feComposite in2="SourceAlpha" operator="in" result="effect1_backgroundBlur_3_451"/>
<feBlend mode="normal" in="SourceGraphic" in2="effect1_backgroundBlur_3_451" result="shape"/>
</filter>
<filter id="filter12_bi_3_451" x="-120.103" y="-49.2426" width="483.755" height="128.949" filterUnits="userSpaceOnUse" color-interpolation-filters="sRGB">
<feFlood flood-opacity="0" result="BackgroundImageFix"/>
<feGaussianBlur in="BackgroundImage" stdDeviation="6.5"/>
<feComposite in2="SourceAlpha" operator="in" result="effect1_backgroundBlur_3_451"/>
<feBlend mode="normal" in="SourceGraphic" in2="effect1_backgroundBlur_3_451" result="shape"/>
<feColorMatrix in="SourceAlpha" type="matrix" values="0 0 0 0 0 0 0 0 0 0 0 0 0 0 0 0 0 0 127 0" result="hardAlpha"/>
<feOffset dy="2"/>
<feGaussianBlur stdDeviation="2"/>
<feComposite in2="hardAlpha" operator="arithmetic" k2="-1" k3="1"/>
<feColorMatrix type="matrix" values="0 0 0 0 1 0 0 0 0 1 0 0 0 0 1 0 0 0 0.25 0"/>
<feBlend mode="normal" in2="shape" result="effect2_innerShadow_3_451"/>
</filter>
<linearGradient id="paint0_linear_3_451" x1="292.962" y1="117.659" x2="-104.729" y2="-0.456458" gradientUnits="userSpaceOnUse">
<stop stop-color="#E875A8"/>
<stop offset="1" stop-color="#8080C9"/>
</linearGradient>
<linearGradient id="paint1_linear_3_451" x1="292.961" y1="256.56" x2="-104.73" y2="138.444" gradientUnits="userSpaceOnUse">
<stop stop-color="#51B4F8"/>
<stop offset="1" stop-color="#C46EA1"/>
</linearGradient>
<linearGradient id="paint2_linear_3_451" x1="-65.0638" y1="257.897" x2="403.333" y2="322.705" gradientUnits="userSpaceOnUse">
<stop stop-color="#4B939D"/>
<stop offset="1" stop-color="#338CE3"/>
</linearGradient>
<linearGradient id="paint3_linear_3_451" x1="-13.6801" y1="283.637" x2="323.73" y2="257.273" gradientUnits="userSpaceOnUse">
<stop stop-color="#348AC2"/>
<stop offset="1" stop-color="#3397E2" stop-opacity="0"/>
</linearGradient>
<linearGradient id="paint4_linear_3_451" x1="303.78" y1="139.944" x2="-2.42393" y2="325.998" gradientUnits="userSpaceOnUse">
<stop offset="0.246105" stop-color="#C76895"/>
<stop offset="0.689263" stop-color="#31ACE0"/>
<stop offset="1" stop-color="#2CC5DA"/>
</linearGradient>
<linearGradient id="paint5_linear_3_451" x1="-69.735" y1="250.547" x2="327.955" y2="132.431" gradientUnits="userSpaceOnUse">
<stop stop-color="#0EE6C8"/>
<stop offset="1" stop-color="#69BDC8"/>
</linearGradient>
<linearGradient id="paint6_linear_3_451" x1="-65.0638" y1="147.597" x2="444.072" y2="147.597" gradientUnits="userSpaceOnUse">
<stop stop-color="#C2FFDB"/>
<stop offset="1" stop-color="#FB5D78"/>
</linearGradient>
<linearGradient id="paint7_linear_3_451" x1="-4.34025" y1="158.629" x2="333.07" y2="132.265" gradientUnits="userSpaceOnUse">
<stop stop-color="#C86895"/>
<stop offset="1" stop-color="#D3668F" stop-opacity="0"/>
</linearGradient>
<linearGradient id="paint8_linear_3_451" x1="299.105" y1="25.973" x2="-2.20885" y2="211.602" gradientUnits="userSpaceOnUse">
<stop stop-color="#A192DB"/>
<stop offset="0.583333" stop-color="#9673B1"/>
<stop offset="1" stop-color="#3586E4"/>
</linearGradient>
<linearGradient id="paint9_linear_3_451" x1="-46.1652" y1="117.592" x2="351.525" y2="-0.52338" gradientUnits="userSpaceOnUse">
<stop stop-color="#4882DB"/>
<stop offset="1" stop-color="#9A7EBF"/>
</linearGradient>
<linearGradient id="paint10_linear_3_451" x1="-51.0509" y1="7.87864" x2="311.974" y2="43.3546" gradientUnits="userSpaceOnUse">
<stop stop-color="#35CFE4"/>
<stop offset="0.557292" stop-color="#2CC4D9"/>
<stop offset="1" stop-color="#A192DB"/>
</linearGradient>
</defs>
</svg>
