<svg width="76" height="76" viewBox="0 0 76 76" fill="none" xmlns="http://www.w3.org/2000/svg">
<circle cx="38" cy="38" r="37.5" stroke="white"/>
<path fill-rule="evenodd" clip-rule="evenodd" d="M61.8531 25.975C62.199 24.8375 61.8531 24 60.1969 24H54.7283C53.3367 24 52.695 24.7229 52.3471 25.5208C52.3471 25.5208 49.5659 32.179 45.6264 36.5039C44.3514 37.758 43.7723 38.156 43.0765 38.156C42.7285 38.156 42.2056 37.758 42.2056 36.6185V25.975C42.2056 24.6083 41.8223 24 40.664 24H32.0642C31.1955 24 30.6725 24.6333 30.6725 25.2354C30.6725 26.5291 32.6433 26.8291 32.8454 30.4707V38.383C32.8454 40.1184 32.5267 40.433 31.8309 40.433C29.9767 40.433 25.4664 33.7435 22.7894 26.0895C22.2706 24.6 21.7456 24 20.3478 24H14.875C13.3125 24 13 24.7229 13 25.5208C13 26.9416 14.8541 33.9998 21.6352 43.335C26.156 49.7099 32.5204 53.1661 38.3182 53.1661C41.7952 53.1661 42.2244 52.3994 42.2244 51.0765V46.2579C42.2244 44.7225 42.5535 44.4162 43.6556 44.4162C44.4681 44.4162 45.8576 44.8162 49.1034 47.8891C52.8117 51.5328 53.4221 53.1661 55.5095 53.1661H60.9782C62.5406 53.1661 63.3239 52.3994 62.874 50.8828C62.3781 49.3745 60.6073 47.1849 58.2595 44.5871C56.9845 43.1079 55.072 41.5142 54.4908 40.7163C53.6804 39.6934 53.9116 39.2372 54.4908 38.3268C54.4908 38.3268 61.1573 29.1061 61.8511 25.975H61.8531Z" fill="white"/>
</svg>
