<svg width="269" height="299" viewBox="0 0 269 299" fill="none" xmlns="http://www.w3.org/2000/svg">
<path d="M157.224 32.5957C153.883 25.6223 145.523 22.6771 138.549 26.0172L91.2945 48.6519L184.089 242.382C192.877 260.728 212.273 271.542 232.498 269.373L268.774 265.483L157.224 32.5957Z" fill="url(#paint0_linear_3_430)"/>
<path d="M90.0352 32.4201C92.5852 25.5438 100.227 22.0366 107.103 24.5866C134.608 34.7866 148.637 65.3528 138.437 92.8582L94.9027 210.253C80.2274 249.826 42.202 275.853 1.27952e-05 275.209L90.0352 32.4201Z" fill="url(#paint1_linear_3_430)"/>
<g filter="url(#filter0_d_3_430)">
<path d="M155.203 28.3984C152.767 23.2952 147.5 20.1585 141.853 20.4476L98.3543 22.6739C95.5806 22.8159 93.1531 24.5843 92.1676 27.181L67.646 91.7936L94.8564 67.5594C108.787 55.1524 130.354 57.3389 141.512 72.2894L251.895 230.81L214.962 153.593L155.203 28.3984Z" fill="url(#paint2_linear_3_430)"/>
</g>
<path fill-rule="evenodd" clip-rule="evenodd" d="M152.792 176.449H105.404L110.814 164.662C117.89 149.246 139.739 149.084 147.042 164.395L152.792 176.449ZM165.255 202.592L152.793 176.45L163.086 198.028L165.255 202.592ZM129.69 156.113C121.083 156.113 113.357 161.391 110.227 169.408L107.479 176.446H152.712L148.428 167.763C144.909 160.629 137.645 156.113 129.69 156.113Z" fill="url(#paint3_linear_3_430)"/>
<defs>
<filter id="filter0_d_3_430" x="63.646" y="20.4292" width="192.249" height="218.381" filterUnits="userSpaceOnUse" color-interpolation-filters="sRGB">
<feFlood flood-opacity="0" result="BackgroundImageFix"/>
<feColorMatrix in="SourceAlpha" type="matrix" values="0 0 0 0 0 0 0 0 0 0 0 0 0 0 0 0 0 0 127 0" result="hardAlpha"/>
<feOffset dy="4"/>
<feGaussianBlur stdDeviation="2"/>
<feComposite in2="hardAlpha" operator="out"/>
<feColorMatrix type="matrix" values="0 0 0 0 0 0 0 0 0 0 0 0 0 0 0 0 0 0 0.25 0"/>
<feBlend mode="normal" in2="BackgroundImageFix" result="effect1_dropShadow_3_430"/>
<feBlend mode="normal" in="SourceGraphic" in2="effect1_dropShadow_3_430" result="shape"/>
</filter>
<linearGradient id="paint0_linear_3_430" x1="214.128" y1="272.275" x2="107.479" y2="26.609" gradientUnits="userSpaceOnUse">
<stop stop-color="#0ECBBE"/>
<stop offset="0.286974" stop-color="#0C83A3"/>
<stop offset="0.621867" stop-color="#175675"/>
</linearGradient>
<linearGradient id="paint1_linear_3_430" x1="125.779" y1="31.5123" x2="53.117" y2="241.567" gradientUnits="userSpaceOnUse">
<stop stop-color="#0EE6C8"/>
<stop offset="0.317708" stop-color="#00B4C4"/>
<stop offset="1" stop-color="#0C83A3"/>
</linearGradient>
<linearGradient id="paint2_linear_3_430" x1="154.376" y1="174.756" x2="202.513" y2="130.768" gradientUnits="userSpaceOnUse">
<stop offset="0.0962162" stop-color="#11D9CA"/>
<stop offset="0.996878" stop-color="#0EE6C8"/>
</linearGradient>
<linearGradient id="paint3_linear_3_430" x1="181.654" y1="164.321" x2="181.654" y2="256.539" gradientUnits="userSpaceOnUse">
<stop stop-color="#0C83A3"/>
<stop offset="1" stop-color="#0ED1C0"/>
</linearGradient>
</defs>
</svg>
