<svg width="88" height="35" viewBox="0 0 88 35" fill="none" xmlns="http://www.w3.org/2000/svg">
<rect x="0.5" y="34.5" width="34" height="87" rx="17" transform="rotate(-90 0.5 34.5)" stroke="white"/>
<path d="M34.1161 24.464C34.201 24.6256 34.3284 24.7609 34.4845 24.8553C34.6407 24.9498 34.8196 24.9998 35.0021 25L53.0021 25C53.1843 24.9992 53.3628 24.9489 53.5185 24.8542C53.6741 24.7596 53.801 24.6244 53.8856 24.463C53.9701 24.3017 54.0091 24.1203 53.9982 23.9385C53.9874 23.7566 53.9272 23.5812 53.8241 23.431L44.8241 10.431C44.7324 10.2978 44.6096 10.1888 44.4664 10.1136C44.3233 10.0383 44.1639 9.99897 44.0021 9.99897C43.8404 9.99897 43.681 10.0383 43.5378 10.1136C43.3946 10.1888 43.2719 10.2978 43.1801 10.431L34.1801 23.431C34.0761 23.5809 34.015 23.7564 34.0038 23.9386C33.9925 24.1207 34.0313 24.3024 34.1161 24.464ZM44.0021 12.757L51.0941 23L36.9101 23L44.0021 12.757Z" fill="white"/>
</svg>
