<svg width="80" height="80" viewBox="0 0 80 80" fill="none" xmlns="http://www.w3.org/2000/svg">
<g filter="url(#filter0_d_163_485)">
<path d="M40 72C30.4522 72 21.2955 68.2072 14.5442 61.4558C7.79284 54.7045 4 45.5478 4 36C4 26.4522 7.79284 17.2955 14.5442 10.5442C21.2955 3.79284 30.4522 -1.99096e-06 40 -1.57361e-06C49.5478 -1.15626e-06 58.7045 3.79285 65.4558 10.5442C72.2072 17.2955 76 26.4522 76 36C76 45.5478 72.2072 54.7045 65.4558 61.4558C58.7045 68.2072 49.5478 72 40 72V72ZM55.75 38.25C56.3467 38.25 56.919 38.0129 57.341 37.591C57.7629 37.169 58 36.5967 58 36C58 35.4033 57.7629 34.831 57.341 34.409C56.919 33.9871 56.3467 33.75 55.75 33.75L29.6815 33.75L39.343 24.093C39.7655 23.6705 40.0028 23.0975 40.0028 22.5C40.0028 21.9025 39.7655 21.3295 39.343 20.907C38.9205 20.4845 38.3475 20.2472 37.75 20.2472C37.1525 20.2472 36.5795 20.4845 36.157 20.907L22.657 34.407C22.4475 34.616 22.2812 34.8643 22.1678 35.1376C22.0544 35.411 21.996 35.704 21.996 36C21.996 36.296 22.0544 36.589 22.1678 36.8623C22.2812 37.1357 22.4475 37.384 22.657 37.593L36.157 51.093C36.5795 51.5155 37.1525 51.7528 37.75 51.7528C38.3475 51.7528 38.9205 51.5155 39.343 51.093C39.7655 50.6705 40.0028 50.0975 40.0028 49.5C40.0028 48.9025 39.7655 48.3295 39.343 47.907L29.6815 38.25L55.75 38.25Z" fill="#FAFAFA"/>
</g>
<defs>
<filter id="filter0_d_163_485" x="-1.43051e-06" y="0" width="80" height="80" filterUnits="userSpaceOnUse" color-interpolation-filters="sRGB">
<feFlood flood-opacity="0" result="BackgroundImageFix"/>
<feColorMatrix in="SourceAlpha" type="matrix" values="0 0 0 0 0 0 0 0 0 0 0 0 0 0 0 0 0 0 127 0" result="hardAlpha"/>
<feOffset dy="4"/>
<feGaussianBlur stdDeviation="2"/>
<feComposite in2="hardAlpha" operator="out"/>
<feColorMatrix type="matrix" values="0 0 0 0 0 0 0 0 0 0 0 0 0 0 0 0 0 0 0.25 0"/>
<feBlend mode="normal" in2="BackgroundImageFix" result="effect1_dropShadow_163_485"/>
<feBlend mode="normal" in="SourceGraphic" in2="effect1_dropShadow_163_485" result="shape"/>
</filter>
</defs>
</svg>
