<svg width="379" height="270" viewBox="0 0 379 270" fill="none" xmlns="http://www.w3.org/2000/svg">
<g filter="url(#filter0_i_401_940)">
<circle cx="216.609" cy="165.546" r="106.978" transform="rotate(-30 216.609 165.546)" fill="#2D3238"/>
</g>
<path d="M371.787 211.885L345.981 389.807L178.993 323.194C151.379 315.196 127.45 300.895 107.207 280.293C86.964 259.69 72.9821 235.473 65.2613 207.641C57.5404 179.808 57.1452 151.842 64.0755 123.742C71.0059 95.6412 84.3247 71.6491 104.032 51.7654C123.739 31.8818 147.13 18.3773 174.203 11.2521C201.277 4.12681 228.714 4.58837 256.515 12.6367C284.316 20.6851 308.338 35.0105 328.581 55.6131C348.824 76.2156 362.805 100.433 370.526 128.265C378.247 156.097 378.667 183.97 371.787 211.885ZM163.03 72.5169C137.868 87.0444 121.542 108.283 114.052 136.234C106.563 164.185 110.048 190.682 124.507 215.727C138.967 240.771 160.138 256.979 188.02 264.35C215.902 271.721 242.425 268.143 267.587 253.615C292.75 239.088 309.11 217.908 316.667 190.075C324.225 162.243 320.774 135.804 306.315 110.76C291.855 85.7158 270.65 69.449 242.7 61.9596C214.749 54.4703 188.192 57.9893 163.03 72.5169Z" fill="url(#paint0_angular_401_940)"/>
<g filter="url(#filter1_d_401_940)">
<path fill-rule="evenodd" clip-rule="evenodd" d="M279.5 79.9673C260.643 65.2934 237.16 57.599 213.03 58.2228C188.323 58.8616 164.539 68.1809 145.91 84.5233C127.281 100.866 115.014 123.172 111.29 147.475C107.64 171.299 112.432 195.528 124.818 216.02L124.446 216.234C132.16 229.597 142.782 241.057 155.544 249.789C168.306 258.52 182.889 264.303 198.238 266.721C213.587 269.138 229.32 268.129 244.298 263.767C259.276 259.404 273.126 251.798 284.847 241.496C296.567 231.195 305.865 218.457 312.069 204.202C318.272 189.947 321.227 174.533 320.718 159.072C320.209 143.611 316.249 128.491 309.126 114.804C302.003 101.117 291.893 89.2059 279.528 79.9309L279.5 79.9673ZM140.282 208.092L140.58 207.906C129.818 190.659 125.611 170.107 128.706 149.905C131.802 129.703 141.999 111.161 157.485 97.576C172.97 83.9912 192.74 76.2445 213.279 75.7135C233.448 75.192 253.075 81.6624 268.794 93.9931L268.758 94.0402C279.037 101.75 287.44 111.652 293.362 123.029C299.283 134.406 302.574 146.975 302.998 159.827C303.421 172.679 300.965 185.493 295.808 197.342C290.651 209.191 282.922 219.78 273.179 228.343C263.437 236.906 251.924 243.229 239.473 246.856C227.022 250.482 213.944 251.32 201.185 249.311C188.426 247.301 176.304 242.494 165.695 235.236C155.326 228.142 146.656 218.879 140.282 208.092Z" fill="url(#paint1_angular_401_940)"/>
</g>
<path fill-rule="evenodd" clip-rule="evenodd" d="M171.598 175.954C163.59 162.083 168.342 144.347 182.212 136.339L208.533 121.142C222.404 113.134 240.14 117.887 248.148 131.757L263.345 158.078C271.353 171.949 266.6 189.685 252.73 197.693L226.409 212.889C212.538 220.897 194.802 216.145 186.794 202.275L171.598 175.954ZM185.573 179.697C183.319 175.792 182.076 171.581 181.763 167.367L183.172 169.807L188.841 166.534L190.478 169.369L196.503 165.89L193.024 159.866L187.355 163.139L185.718 160.304L181.806 162.563C182.64 153.504 187.711 144.976 196.188 140.082L204.789 135.116C207.757 133.403 210.902 132.273 214.09 131.693L214.885 133.069L218.031 131.252C223.944 131.001 229.821 132.569 234.821 135.734L233.071 136.745L236.754 143.124L240.809 140.783C242.152 142.272 243.361 143.924 244.404 145.731L248.728 153.221L240.931 157.723L246.456 167.292L252.793 163.633C253.312 166.481 253.393 169.364 253.062 172.187L250.724 168.136L244.699 171.615L248.177 177.639L246.051 178.867L248.997 183.969C247.015 187.216 244.369 190.109 241.12 192.426L239.346 189.354L234.739 192.014L236.58 195.202L230.154 198.912C227.232 200.6 224.138 201.72 221 202.309L230.446 196.855L230.446 196.854L233.281 195.217L232.258 193.446L234.739 192.013L232.079 187.406L227.472 190.066L228.495 191.838L227.786 192.247L224.922 187.286L215.353 192.811L220.852 202.336C219.545 202.574 218.229 202.72 216.916 202.776L219.351 201.37L216.486 196.409L211.525 199.273L213.515 202.722C211.354 202.56 209.219 202.157 207.153 201.524L207.066 201.374L206.928 201.454C200.253 199.35 194.315 194.837 190.539 188.298L185.573 179.697ZM252.076 175.389L252.569 175.104C252.509 175.374 252.445 175.643 252.378 175.911L252.076 175.389ZM202.287 171C199.249 165.739 201.052 159.011 206.313 155.974L213.132 152.037C218.393 148.999 225.12 150.802 228.158 156.063L232.095 162.882C235.132 168.143 233.33 174.871 228.068 177.908L221.25 181.845C215.989 184.883 209.261 183.08 206.223 177.819L202.287 171ZM207.522 172.702C204.485 167.441 206.287 160.713 211.548 157.676L211.988 157.422C217.249 154.384 223.977 156.187 227.014 161.448L227.268 161.888C230.305 167.149 228.503 173.876 223.242 176.914L222.802 177.168C217.541 180.205 210.813 178.403 207.776 173.141L207.522 172.702ZM189.941 151.25L195.966 147.771L199.444 153.796L193.419 157.275L189.941 151.25ZM231.681 177.713L227.074 180.373L229.734 184.98L234.341 182.32L231.681 177.713ZM204.652 194.736L209.613 191.871L212.478 196.833L207.516 199.697L204.652 194.736ZM193.402 187.527L196.592 185.686L198.433 188.875L195.244 190.717L193.402 187.527ZM190.234 171.4L187.044 173.242L188.886 176.431L192.075 174.59L190.234 171.4ZM192.948 176.921L196.138 175.079L197.98 178.269L194.79 180.111L192.948 176.921ZM237.003 153.376L233.814 155.217L235.655 158.407L238.845 156.565L237.003 153.376ZM227.091 150.12L230.281 148.279L232.122 151.468L228.933 153.31L227.091 150.12ZM241.037 147.266L237.847 149.108L239.689 152.297L242.878 150.456L241.037 147.266ZM206.612 144.933L209.802 143.091L211.644 146.281L208.454 148.122L206.612 144.933ZM200.353 141.458L197.163 143.299L199.005 146.489L202.195 144.647L200.353 141.458ZM219.016 137.771L225.396 134.088L229.079 140.467L222.699 144.15L219.016 137.771Z" fill="white"/>
<rect x="207.967" y="164.47" width="13.5045" height="13.5045" transform="rotate(-30 207.967 164.47)" fill="white"/>
<mask id="mask0_401_940" style="mask-type:alpha" maskUnits="userSpaceOnUse" x="59" y="6" width="318" height="384">
<path d="M371.787 211.885L345.981 389.807L178.993 323.194C151.379 315.196 127.45 300.895 107.207 280.293C86.964 259.69 72.9821 235.473 65.2613 207.641C57.5404 179.808 57.1452 151.842 64.0755 123.742C71.0059 95.6412 84.3247 71.6491 104.032 51.7655C123.739 31.8818 147.13 18.3773 174.203 11.2521C201.277 4.12682 228.714 4.58838 256.515 12.6367C284.316 20.6851 308.338 35.0106 328.581 55.6131C348.823 76.2156 362.805 100.433 370.526 128.265C378.247 156.097 378.667 183.97 371.787 211.885ZM163.03 72.5169C137.868 87.0444 121.542 108.283 114.052 136.234C106.563 164.185 110.048 190.682 124.507 215.727C138.967 240.771 160.138 256.979 188.02 264.35C215.902 271.721 242.425 268.143 267.587 253.615C292.75 239.088 309.11 217.908 316.667 190.075C324.225 162.243 320.774 135.804 306.315 110.76C291.855 85.7158 270.65 69.449 242.7 61.9596C214.749 54.4703 188.192 57.9894 163.03 72.5169Z" fill="url(#paint2_angular_401_940)"/>
</mask>
<g mask="url(#mask0_401_940)">
<rect x="149.525" y="317.221" width="322.061" height="48.2222" transform="rotate(-75 149.525 317.221)" fill="url(#paint3_linear_401_940)"/>
<rect x="134.566" y="308.559" width="322.061" height="10.9261" transform="rotate(-75 134.566 308.559)" fill="url(#paint4_linear_401_940)"/>
</g>
<defs>
<filter id="filter0_i_401_940" x="109.613" y="58.5498" width="213.992" height="213.993" filterUnits="userSpaceOnUse" color-interpolation-filters="sRGB">
<feFlood flood-opacity="0" result="BackgroundImageFix"/>
<feBlend mode="normal" in="SourceGraphic" in2="BackgroundImageFix" result="shape"/>
<feColorMatrix in="SourceAlpha" type="matrix" values="0 0 0 0 0 0 0 0 0 0 0 0 0 0 0 0 0 0 127 0" result="hardAlpha"/>
<feMorphology radius="67" operator="erode" in="SourceAlpha" result="effect1_innerShadow_401_940"/>
<feOffset/>
<feGaussianBlur stdDeviation="2"/>
<feComposite in2="hardAlpha" operator="arithmetic" k2="-1" k3="1"/>
<feColorMatrix type="matrix" values="0 0 0 0 0 0 0 0 0 0 0 0 0 0 0 0 0 0 0.25 0"/>
<feBlend mode="normal" in2="shape" result="effect1_innerShadow_401_940"/>
</filter>
<filter id="filter1_d_401_940" x="110.098" y="58.1875" width="210.676" height="209.815" filterUnits="userSpaceOnUse" color-interpolation-filters="sRGB">
<feFlood flood-opacity="0" result="BackgroundImageFix"/>
<feColorMatrix in="SourceAlpha" type="matrix" values="0 0 0 0 0 0 0 0 0 0 0 0 0 0 0 0 0 0 127 0" result="hardAlpha"/>
<feOffset/>
<feComposite in2="hardAlpha" operator="out"/>
<feColorMatrix type="matrix" values="0 0 0 0 0 0 0 0 0 0 0 0 0 0 0 0 0 0 0.25 0"/>
<feBlend mode="normal" in2="BackgroundImageFix" result="effect1_dropShadow_401_940"/>
<feBlend mode="normal" in="SourceGraphic" in2="effect1_dropShadow_401_940" result="shape"/>
</filter>
<radialGradient id="paint0_angular_401_940" cx="0" cy="0" r="1" gradientUnits="userSpaceOnUse" gradientTransform="translate(241.168 208.266) rotate(59.9855) scale(403.395 302.989)">
<stop stop-color="#F54C4C"/>
<stop offset="0.270833" stop-color="#6636FA"/>
<stop offset="0.59375" stop-color="#FEDA27"/>
<stop offset="0.807292" stop-color="#D56166"/>
<stop offset="1" stop-color="#F54C4C"/>
</radialGradient>
<radialGradient id="paint1_angular_401_940" cx="0" cy="0" r="1" gradientUnits="userSpaceOnUse" gradientTransform="translate(214.503 161.877) rotate(-120.02) scale(198.842 201.599)">
<stop stop-color="#F54C4C"/>
<stop offset="0.270833" stop-color="#6636FA"/>
<stop offset="0.59375" stop-color="#FEDA27"/>
<stop offset="0.807292" stop-color="#D56166"/>
<stop offset="1" stop-color="#F54C4C"/>
</radialGradient>
<radialGradient id="paint2_angular_401_940" cx="0" cy="0" r="1" gradientUnits="userSpaceOnUse" gradientTransform="translate(241.168 208.266) rotate(59.9855) scale(403.395 302.989)">
<stop stop-color="#F54C4C"/>
<stop offset="0.270833" stop-color="#6636FA"/>
<stop offset="0.59375" stop-color="#FEDA27"/>
<stop offset="0.807292" stop-color="#D56166"/>
<stop offset="1" stop-color="#F54C4C"/>
</radialGradient>
<linearGradient id="paint3_linear_401_940" x1="791.479" y1="343.756" x2="122.408" y2="438.652" gradientUnits="userSpaceOnUse">
<stop stop-color="white"/>
<stop offset="0.579793" stop-color="white" stop-opacity="0"/>
</linearGradient>
<linearGradient id="paint4_linear_401_940" x1="776.52" y1="314.571" x2="286.141" y2="621.536" gradientUnits="userSpaceOnUse">
<stop stop-color="white"/>
<stop offset="0.651533" stop-color="white" stop-opacity="0"/>
</linearGradient>
</defs>
</svg>
