<svg width="25" height="25" viewBox="0 0 25 25" fill="none" xmlns="http://www.w3.org/2000/svg">
<path d="M23.0403 5.8354C19.3203 0.100396 11.7253 -1.6046 5.83527 1.9604C0.100269 5.5254 -1.75973 13.2754 1.96027 19.0104L2.27027 19.4754L1.03027 24.1254L5.68027 22.8854L6.14527 23.1954C8.16027 24.2804 10.3303 24.9004 12.5003 24.9004C14.8253 24.9004 17.1503 24.2804 19.1653 23.0404C24.9003 19.3204 26.6053 11.7254 23.0403 5.8354ZM19.7853 17.7704C19.1653 18.7004 18.3903 19.3204 17.3053 19.4754C16.6853 19.4754 15.9103 19.7854 12.8103 18.5454C10.1753 17.3054 8.00527 15.2904 6.45527 12.9654C5.52527 11.8804 5.06027 10.4854 4.90527 9.0904C4.90527 7.8504 5.37027 6.7654 6.14527 5.9904C6.45527 5.6804 6.76527 5.5254 7.07527 5.5254H7.85027C8.16027 5.5254 8.47027 5.5254 8.62527 6.1454C8.93527 6.9204 9.71027 8.7804 9.71027 8.9354C9.86527 9.0904 9.86527 9.4004 9.71027 9.5554C9.86527 9.8654 9.71027 10.1754 9.55527 10.3304C9.40027 10.4854 9.24527 10.7954 9.09027 10.9504C8.78027 11.1054 8.62527 11.4154 8.78027 11.7254C9.40027 12.6554 10.1753 13.5854 10.9503 14.3604C11.8803 15.1354 12.8103 15.7554 13.8953 16.2204C14.2053 16.3754 14.5153 16.3754 14.6703 16.0654C14.8253 15.7554 15.6003 14.9804 15.9103 14.6704C16.2203 14.3604 16.3753 14.3604 16.6853 14.5154L19.1653 15.7554C19.4753 15.9104 19.7853 16.0654 19.9403 16.2204C20.0953 16.6854 20.0953 17.3054 19.7853 17.7704Z" fill="#DC6041"/>
</svg>
