<svg width="89" height="36" viewBox="0 0 89 36" fill="none" xmlns="http://www.w3.org/2000/svg">
<rect x="0.701904" y="35.0139" width="34" height="87" rx="17" transform="rotate(-90 0.701904 35.0139)" stroke="white"/>
<path d="M34.318 24.9779C34.4029 25.1395 34.5303 25.2748 34.6864 25.3692C34.8426 25.4637 35.0216 25.5137 35.204 25.5139L53.204 25.5139C53.3862 25.5132 53.5647 25.4628 53.7204 25.3682C53.876 25.2735 54.0029 25.1383 54.0875 24.9769C54.172 24.8156 54.211 24.6342 54.2001 24.4524C54.1893 24.2705 54.1291 24.0951 54.026 23.9449L45.026 10.9449C44.9343 10.8117 44.8115 10.7027 44.6684 10.6275C44.5252 10.5522 44.3658 10.5129 44.204 10.5129C44.0423 10.5129 43.8829 10.5522 43.7397 10.6275C43.5965 10.7027 43.4738 10.8117 43.382 10.9449L34.382 23.9449C34.278 24.0948 34.217 24.2703 34.2057 24.4525C34.1944 24.6346 34.2333 24.8163 34.318 24.9779ZM44.204 13.2709L51.296 23.5139L37.112 23.5139L44.204 13.2709Z" fill="white"/>
</svg>
