<svg width="85" height="66" viewBox="0 0 85 66" fill="none" xmlns="http://www.w3.org/2000/svg">
<path d="M0 32.5H62.5M62.5 32.5L51 21M62.5 32.5L51 44" stroke="white"/>
<circle cx="52" cy="33" r="33" fill="#C4C4C4" fill-opacity="0.01"/>
<path d="M28.6655 56.3345C33.2806 60.9497 39.1606 64.0926 45.562 65.3659C51.9634 66.6392 58.5986 65.9857 64.6286 63.488C70.6585 60.9903 75.8124 56.7606 79.4385 51.3338C83.0646 45.907 85 39.5268 85 33C85 26.4732 83.0646 20.093 79.4385 14.6662C75.8124 9.23936 70.6585 5.00967 64.6286 2.51198C58.5986 0.0142843 51.9634 -0.639226 45.562 0.634085C39.1607 1.9074 33.2806 5.05034 28.6655 9.66547L29.4218 10.4218C33.8873 5.95625 39.5768 2.91517 45.7707 1.68313C51.9646 0.451093 58.3847 1.08342 64.2192 3.50016C70.0538 5.9169 75.0406 10.0095 78.5492 15.2604C82.0577 20.5114 83.9304 26.6848 83.9304 33C83.9304 39.3152 82.0577 45.4887 78.5492 50.7396C75.0406 55.9905 70.0538 60.0831 64.2192 62.4998C58.3847 64.9166 51.9646 65.5489 45.7707 64.3169C39.5768 63.0848 33.8873 60.0437 29.4218 55.5782L28.6655 56.3345Z" fill="white"/>
</svg>
