<svg width="25" height="48" viewBox="0 0 25 48" fill="none" xmlns="http://www.w3.org/2000/svg">
<path d="M0.556499 0.56485C0.199733 0.93413 0 1.42986 0 1.94607C0 2.46227 0.199733 2.958 0.556499 3.32728L20.4886 24L0.556499 44.6686C0.199733 45.0379 0 45.5336 0 46.0498C0 46.566 0.199733 47.0617 0.556499 47.431C0.729913 47.6111 0.937249 47.7542 1.16627 47.8519C1.39529 47.9497 1.64136 48 1.88994 48C2.13852 48 2.38459 47.9497 2.61361 47.8519C2.84263 47.7542 3.04997 47.6111 3.22338 47.431L24.4194 25.4432C24.7916 25.0571 25 24.5392 25 24C25 23.4608 24.7916 22.9429 24.4194 22.5568L3.22338 0.568986C3.04997 0.388918 2.84263 0.245798 2.61361 0.148073C2.38459 0.0503482 2.13852 0 1.88994 0C1.64136 0 1.39529 0.0503482 1.16627 0.148073C0.937249 0.245798 0.729913 0.388918 0.556499 0.568986V0.56485Z" fill="white"/>
</svg>
