<svg width="63" height="62" viewBox="0 0 63 62" fill="none" xmlns="http://www.w3.org/2000/svg">
<rect x="0.851562" width="61.363" height="61.363" rx="9" fill="#333333"/>
<path d="M38.5464 37.6938C42.4195 37.6938 45.5593 34.554 45.5593 30.6809C45.5593 26.8078 42.4195 23.668 38.5464 23.668C34.6732 23.668 31.5334 26.8078 31.5334 30.6809C31.5334 34.554 34.6732 37.6938 38.5464 37.6938Z" fill="#19BCFE"/>
<path fill-rule="evenodd" clip-rule="evenodd" d="M24.519 51.7202C26.379 51.7202 28.1627 50.9813 29.4779 49.6661C30.7931 48.351 31.5319 46.5672 31.5319 44.7073V37.6943H24.519C22.6591 37.6943 20.8753 38.4332 19.5601 39.7484C18.245 41.0635 17.5061 42.8473 17.5061 44.7073C17.5061 46.5672 18.245 48.351 19.5601 49.6661C20.8753 50.9813 22.6591 51.7202 24.519 51.7202Z" fill="#09CF83"/>
<path fill-rule="evenodd" clip-rule="evenodd" d="M24.519 37.6938H31.5319V23.668H24.519C22.6591 23.668 20.8753 24.4068 19.5601 25.722C18.245 27.0372 17.5061 28.8209 17.5061 30.6809C17.5061 32.5408 18.245 34.3246 19.5601 35.6398C20.8753 36.9549 22.6591 37.6938 24.519 37.6938Z" fill="#A259FF"/>
<path fill-rule="evenodd" clip-rule="evenodd" d="M24.5188 23.6684H31.5317V9.64258H24.5188C22.6588 9.64258 20.8751 10.3814 19.5599 11.6966C18.2447 13.0118 17.5059 14.7956 17.5059 16.6555C17.5059 18.5154 18.2447 20.2992 19.5599 21.6144C20.8751 22.9295 22.6588 23.6684 24.5188 23.6684Z" fill="#F24E1E"/>
<path fill-rule="evenodd" clip-rule="evenodd" d="M38.5464 23.6684H31.5334V9.64258H38.5464C40.4063 9.64258 42.1901 10.3814 43.5052 11.6966C44.8204 13.0118 45.5593 14.7956 45.5593 16.6555C45.5593 18.5154 44.8204 20.2992 43.5052 21.6144C42.1901 22.9295 40.4063 23.6684 38.5464 23.6684Z" fill="#FF7262"/>
</svg>
