<svg width="58" height="57" viewBox="0 0 58 57" fill="none" xmlns="http://www.w3.org/2000/svg">
<rect x="6.81689" y="7.44922" width="42.525" height="42.525" rx="6" fill="#31C5F0"/>
<path fill-rule="evenodd" clip-rule="evenodd" d="M6 0.629883C2.68629 0.629883 0 3.31618 0 6.62989V50.907C0 54.2207 2.68629 56.907 6 56.907L51.8521 56.907C55.1658 56.907 57.8521 54.2207 57.8521 50.907V6.62989C57.8521 3.31618 55.1658 0.629883 51.8521 0.629883H6ZM37.1297 25.1663C37.1297 24.299 37.8388 23.2472 39.914 23.2458C39.9151 23.2458 39.9157 23.2473 39.9147 23.248C39.9137 23.2487 39.9142 23.2502 39.9154 23.2502C41.4655 23.2258 42.994 23.6075 44.3495 24.3561C44.4415 24.4068 44.538 24.4607 44.6429 24.4564C44.8024 24.4499 44.8817 24.3332 44.8817 24.17V20.5633C44.8883 20.4603 44.8674 20.3573 44.821 20.265C44.7292 20.082 44.5214 20.0011 44.3276 19.9351C42.9084 19.452 41.4109 19.2366 39.9113 19.301C35.3083 19.301 32.6529 22.1142 32.6529 25.5067C32.6529 28.5273 34.2038 30.3464 37.9389 32.1339C40.5965 33.5022 41.2006 34.343 41.2006 35.2897C41.2006 36.4731 40.3328 37.341 38.2545 37.341C36.3801 37.3423 34.545 36.8039 32.9685 35.7901C32.7836 35.6571 32.6529 35.736 32.6529 35.9998V39.8701C32.6529 40.082 32.6777 40.2128 32.8625 40.2917C34.5413 41.1008 36.3922 41.4877 38.2545 41.4187C42.5937 41.4187 45.8014 39.1578 45.8014 34.9493C45.8014 32.1339 44.521 30.2156 40.3914 28.2162C37.603 26.7713 37.1297 26.1131 37.1297 25.1663ZM19.4301 26.4264C18.2245 26.4264 17.2999 25.4486 17.2999 24.243V18.7503C17.2999 17.3324 18.4066 16.1452 19.8245 16.1452C23.3207 16.1452 25.399 17.8268 25.399 21.1675C25.399 25.3489 22.507 26.4264 19.4301 26.4264ZM13.1973 12.0832C12.9877 12.0832 12.6257 12.2112 12.6181 12.393C12.618 12.3969 12.6184 12.4007 12.6191 12.4044C12.6199 12.4082 12.6203 12.412 12.6203 12.4158V40.6456C12.6203 40.8823 12.7262 40.9612 12.9358 40.9612H16.9595C17.1962 40.9612 17.2751 40.8552 17.2751 40.6456V31.3892C17.2751 30.924 17.6522 30.5493 18.1169 30.5696C18.4359 30.5836 18.7846 30.5988 19.3264 30.5988C25.2683 30.5988 30.108 27.7315 30.108 21.0525C30.108 15.9491 27.2677 11.9525 19.9823 11.9525C17.72 11.9473 15.4578 11.9909 13.1973 12.0832Z" fill="#0C0824"/>
</svg>
