<svg width="76" height="76" viewBox="0 0 76 76" fill="none" xmlns="http://www.w3.org/2000/svg">
<circle cx="38" cy="38" r="37.5" stroke="white"/>
<path d="M56.7094 26.1747C50.1275 15.9997 36.6896 12.9746 26.2683 19.2997C16.1213 25.6247 12.8303 39.3748 19.4122 49.5499L19.9607 50.3749L17.7667 58.625L25.994 56.425L26.8168 56.975C30.382 58.9 34.2214 60 38.0608 60C42.1745 60 46.2881 58.9 49.8533 56.7C60.0003 50.0999 63.017 36.6248 56.7094 26.1747V26.1747ZM50.9503 47.3499C49.8533 48.9999 48.4821 50.0999 46.5624 50.3749C45.4654 50.3749 44.0942 50.9249 38.6093 48.7249C33.9471 46.5249 30.1077 42.9499 27.3653 38.8248C25.7198 36.8998 24.8971 34.4248 24.6228 31.9498C24.6228 29.7498 25.4456 27.8248 26.8168 26.4497C27.3653 25.8997 27.9138 25.6247 28.4622 25.6247H29.8335C30.382 25.6247 30.9304 25.6247 31.2047 26.7247C31.7532 28.0998 33.1244 31.3998 33.1244 31.6748C33.3986 31.9498 33.3986 32.4998 33.1244 32.7748C33.3986 33.3248 33.1244 33.8748 32.8502 34.1498C32.5759 34.4248 32.3017 34.9748 32.0274 35.2498C31.4789 35.5248 31.2047 36.0748 31.4789 36.6248C32.5759 38.2748 33.9471 39.9248 35.3184 41.2999C36.9638 42.6749 38.6093 43.7749 40.529 44.5999C41.0775 44.8749 41.626 44.8749 41.9002 44.3249C42.1745 43.7749 43.5457 42.3999 44.0942 41.8499C44.6427 41.2999 44.9169 41.2999 45.4654 41.5749L49.8533 43.7749C50.4018 44.0499 50.9503 44.3249 51.2245 44.5999C51.4988 45.4249 51.4988 46.5249 50.9503 47.3499V47.3499Z" fill="white"/>
</svg>
