<svg width="50" height="50" viewBox="0 0 50 50" fill="none" xmlns="http://www.w3.org/2000/svg">
<path fill-rule="evenodd" clip-rule="evenodd" d="M3.07478 24.8552C3.07478 30.6232 5.34242 36.155 9.37885 40.2336C13.4153 44.3122 18.8899 46.6035 24.5982 46.6035C30.3066 46.6035 35.7812 44.3122 39.8176 40.2336C43.854 36.155 46.1217 30.6232 46.1217 24.8552C46.1217 19.0872 43.854 13.5554 39.8176 9.47684C35.7812 5.39824 30.3066 3.1069 24.5982 3.1069C18.8899 3.1069 13.4153 5.39824 9.37885 9.47684C5.34242 13.5554 3.07478 19.0872 3.07478 24.8552ZM49.1965 24.8552C49.1965 31.4472 46.6049 37.7693 41.9918 42.4305C37.3787 47.0918 31.1221 49.7104 24.5982 49.7104C18.0744 49.7104 11.8177 47.0918 7.20465 42.4305C2.59159 37.7693 0 31.4472 0 24.8552C0 18.2632 2.59159 11.9412 7.20465 7.27993C11.8177 2.61867 18.0744 0 24.5982 0C31.1221 0 37.3787 2.61867 41.9918 7.27993C46.6049 11.9412 49.1965 18.2632 49.1965 24.8552ZM26.1356 13.9811C26.1356 13.5691 25.9736 13.1739 25.6853 12.8826C25.397 12.5913 25.006 12.4276 24.5982 12.4276C24.1905 12.4276 23.7994 12.5913 23.5111 12.8826C23.2228 13.1739 23.0608 13.5691 23.0608 13.9811V31.9794L16.4624 25.3088C16.1737 25.0171 15.7821 24.8533 15.3739 24.8533C14.9656 24.8533 14.5741 25.0171 14.2854 25.3088C13.9967 25.6005 13.8346 25.9962 13.8346 26.4087C13.8346 26.8212 13.9967 27.2168 14.2854 27.5085L23.5098 36.8292C23.6526 36.9739 23.8222 37.0887 24.009 37.167C24.1958 37.2453 24.396 37.2856 24.5982 37.2856C24.8004 37.2856 25.0007 37.2453 25.1875 37.167C25.3742 37.0887 25.5439 36.9739 25.6867 36.8292L34.911 27.5085C35.1997 27.2168 35.3619 26.8212 35.3619 26.4087C35.3619 25.9962 35.1997 25.6005 34.911 25.3088C34.6224 25.0171 34.2308 24.8533 33.8226 24.8533C33.4143 24.8533 33.0228 25.0171 32.7341 25.3088L26.1356 31.9794V13.9811Z" fill="#0099FF"/>
</svg>
